solid OpenSCAD_Model
  facet normal 0.999658 0.0261685 0
    outer loop
      vertex 10 -2 1
      vertex 9.99726 -1.89533 0
      vertex 9.99726 -1.89533 1
    endloop
  endfacet
  facet normal 0.999658 0.0261685 0
    outer loop
      vertex 9.99726 -1.89533 0
      vertex 10 -2 1
      vertex 10 -2 0
    endloop
  endfacet
  facet normal -0.566409 0.824124 0
    outer loop
      vertex 0.910722 -0.322659 0
      vertex 0.824429 -0.381967 1
      vertex 0.910722 -0.322659 1
    endloop
  endfacet
  facet normal -0.566409 0.824124 0
    outer loop
      vertex 0.824429 -0.381967 1
      vertex 0.910722 -0.322659 0
      vertex 0.824429 -0.381967 0
    endloop
  endfacet
  facet normal -0.972372 -0.233435 0
    outer loop
      vertex 0.0681477 -8.51764 0
      vertex 0.043704 -8.41582 1
      vertex 0.043704 -8.41582 0
    endloop
  endfacet
  facet normal -0.972372 -0.233435 0
    outer loop
      vertex 0.043704 -8.41582 1
      vertex 0.0681477 -8.51764 0
      vertex 0.0681477 -8.51764 1
    endloop
  endfacet
  facet normal -1 0 0
    outer loop
      vertex 0 -8 0
      vertex 0 -2 1
      vertex 0 -2 0
    endloop
  endfacet
  facet normal -1 -0 0
    outer loop
      vertex 0 -2 1
      vertex 0 -8 0
      vertex 0 -8 1
    endloop
  endfacet
  facet normal -0.983254 -0.18224 0
    outer loop
      vertex 0.043704 -8.41582 0
      vertex 0.0246229 -8.31287 1
      vertex 0.0246229 -8.31287 0
    endloop
  endfacet
  facet normal -0.983254 -0.18224 0
    outer loop
      vertex 0.0246229 -8.31287 1
      vertex 0.043704 -8.41582 0
      vertex 0.043704 -8.41582 1
    endloop
  endfacet
  facet normal -0.991445 -0.130529 0
    outer loop
      vertex 0.0246229 -8.31287 0
      vertex 0.0109558 -8.20906 1
      vertex 0.0109558 -8.20906 0
    endloop
  endfacet
  facet normal -0.991445 -0.130529 0
    outer loop
      vertex 0.0109558 -8.20906 1
      vertex 0.0246229 -8.31287 0
      vertex 0.0246229 -8.31287 1
    endloop
  endfacet
  facet normal 0.996914 -0.0785002 0
    outer loop
      vertex 9.98904 -8.20906 1
      vertex 9.99726 -8.10467 0
      vertex 9.99726 -8.10467 1
    endloop
  endfacet
  facet normal 0.996914 -0.0785002 0
    outer loop
      vertex 9.99726 -8.10467 0
      vertex 9.98904 -8.20906 1
      vertex 9.98904 -8.20906 0
    endloop
  endfacet
  facet normal 0.284029 0.958816 -0
    outer loop
      vertex 8.61803 -0.097887 0
      vertex 8.51764 -0.0681486 1
      vertex 8.61803 -0.097887 1
    endloop
  endfacet
  facet normal 0.284029 0.958816 0
    outer loop
      vertex 8.51764 -0.0681486 1
      vertex 8.61803 -0.097887 0
      vertex 8.51764 -0.0681486 0
    endloop
  endfacet
  facet normal -0.999657 -0.0261768 0
    outer loop
      vertex 0.00274086 -8.10467 0
      vertex 0 -8 1
      vertex 0 -8 0
    endloop
  endfacet
  facet normal -0.999657 -0.0261768 0
    outer loop
      vertex 0 -8 1
      vertex 0.00274086 -8.10467 0
      vertex 0.00274086 -8.10467 1
    endloop
  endfacet
  facet normal -0.999657 0.0261768 0
    outer loop
      vertex 0 -2 0
      vertex 0.00274086 -1.89533 1
      vertex 0.00274086 -1.89533 0
    endloop
  endfacet
  facet normal -0.999657 0.0261768 0
    outer loop
      vertex 0.00274086 -1.89533 1
      vertex 0 -2 0
      vertex 0 -2 1
    endloop
  endfacet
  facet normal -0.608756 0.793357 0
    outer loop
      vertex 0.824429 -0.381967 0
      vertex 0.741359 -0.445708 1
      vertex 0.824429 -0.381967 1
    endloop
  endfacet
  facet normal -0.608756 0.793357 0
    outer loop
      vertex 0.741359 -0.445708 1
      vertex 0.824429 -0.381967 0
      vertex 0.741359 -0.445708 0
    endloop
  endfacet
  facet normal 0.942657 0.333764 0
    outer loop
      vertex 9.90211 -1.38197 1
      vertex 9.86716 -1.28326 0
      vertex 9.86716 -1.28326 1
    endloop
  endfacet
  facet normal 0.942657 0.333764 0
    outer loop
      vertex 9.86716 -1.28326 0
      vertex 9.90211 -1.38197 1
      vertex 9.90211 -1.38197 0
    endloop
  endfacet
  facet normal 0.999658 -0.0261685 0
    outer loop
      vertex 9.99726 -8.10467 1
      vertex 10 -8 0
      vertex 10 -8 1
    endloop
  endfacet
  facet normal 0.999658 -0.0261685 0
    outer loop
      vertex 10 -8 0
      vertex 9.99726 -8.10467 1
      vertex 9.99726 -8.10467 0
    endloop
  endfacet
  facet normal 0.0785002 -0.996914 0
    outer loop
      vertex 8.10467 -9.99726 0
      vertex 8.20906 -9.98904 1
      vertex 8.10467 -9.99726 1
    endloop
  endfacet
  facet normal 0.0785002 -0.996914 0
    outer loop
      vertex 8.20906 -9.98904 1
      vertex 8.10467 -9.99726 0
      vertex 8.20906 -9.98904 0
    endloop
  endfacet
  facet normal 0.382717 0.923866 -0
    outer loop
      vertex 8.81347 -0.17291 0
      vertex 8.71674 -0.132839 1
      vertex 8.81347 -0.17291 1
    endloop
  endfacet
  facet normal 0.382717 0.923866 0
    outer loop
      vertex 8.71674 -0.132839 1
      vertex 8.81347 -0.17291 0
      vertex 8.71674 -0.132839 0
    endloop
  endfacet
  facet normal 0.522486 0.852648 -0
    outer loop
      vertex 9.08928 -0.322659 0
      vertex 9 -0.26795 1
      vertex 9.08928 -0.322659 1
    endloop
  endfacet
  facet normal 0.522486 0.852648 0
    outer loop
      vertex 9 -0.26795 1
      vertex 9.08928 -0.322659 0
      vertex 9 -0.26795 0
    endloop
  endfacet
  facet normal 0.333781 0.942651 -0
    outer loop
      vertex 8.71674 -0.132839 0
      vertex 8.61803 -0.097887 1
      vertex 8.71674 -0.132839 1
    endloop
  endfacet
  facet normal 0.333781 0.942651 0
    outer loop
      vertex 8.61803 -0.097887 1
      vertex 8.71674 -0.132839 0
      vertex 8.61803 -0.097887 0
    endloop
  endfacet
  facet normal -0.991445 0.130529 0
    outer loop
      vertex 0.0109558 -1.79094 0
      vertex 0.0246229 -1.68713 1
      vertex 0.0246229 -1.68713 0
    endloop
  endfacet
  facet normal -0.991445 0.130529 0
    outer loop
      vertex 0.0246229 -1.68713 1
      vertex 0.0109558 -1.79094 0
      vertex 0.0109558 -1.79094 1
    endloop
  endfacet
  facet normal -0.996918 -0.0784522 0
    outer loop
      vertex 0.0109558 -8.20906 0
      vertex 0.00274086 -8.10467 1
      vertex 0.00274086 -8.10467 0
    endloop
  endfacet
  facet normal -0.996918 -0.0784522 0
    outer loop
      vertex 0.00274086 -8.10467 1
      vertex 0.0109558 -8.20906 0
      vertex 0.0109558 -8.20906 1
    endloop
  endfacet
  facet normal 0.430496 0.902593 -0
    outer loop
      vertex 8.90798 -0.217987 0
      vertex 8.81347 -0.17291 1
      vertex 8.90798 -0.217987 1
    endloop
  endfacet
  facet normal 0.430496 0.902593 0
    outer loop
      vertex 8.81347 -0.17291 1
      vertex 8.90798 -0.217987 0
      vertex 8.81347 -0.17291 0
    endloop
  endfacet
  facet normal 0.284043 -0.958812 0
    outer loop
      vertex 8.51764 -9.93185 0
      vertex 8.61803 -9.90211 1
      vertex 8.51764 -9.93185 1
    endloop
  endfacet
  facet normal 0.284043 -0.958812 0
    outer loop
      vertex 8.61803 -9.90211 1
      vertex 8.51764 -9.93185 0
      vertex 8.61803 -9.90211 0
    endloop
  endfacet
  facet normal 0.902581 0.430519 0
    outer loop
      vertex 9.82709 -1.18653 1
      vertex 9.78201 -1.09202 0
      vertex 9.78201 -1.09202 1
    endloop
  endfacet
  facet normal 0.902581 0.430519 0
    outer loop
      vertex 9.78201 -1.09202 0
      vertex 9.82709 -1.18653 1
      vertex 9.82709 -1.18653 0
    endloop
  endfacet
  facet normal -0.852636 0.522505 0
    outer loop
      vertex 0.267949 -1 0
      vertex 0.322659 -0.910723 1
      vertex 0.322659 -0.910723 0
    endloop
  endfacet
  facet normal -0.852636 0.522505 0
    outer loop
      vertex 0.322659 -0.910723 1
      vertex 0.267949 -1 0
      vertex 0.267949 -1 1
    endloop
  endfacet
  facet normal 0.649454 0.760401 -0
    outer loop
      vertex 9.33826 -0.513711 0
      vertex 9.25864 -0.445708 1
      vertex 9.33826 -0.513711 1
    endloop
  endfacet
  facet normal 0.649454 0.760401 0
    outer loop
      vertex 9.25864 -0.445708 1
      vertex 9.33826 -0.513711 0
      vertex 9.25864 -0.445708 0
    endloop
  endfacet
  facet normal 0.760419 0.649433 0
    outer loop
      vertex 9.55429 -0.74136 1
      vertex 9.48629 -0.661739 0
      vertex 9.48629 -0.661739 1
    endloop
  endfacet
  facet normal 0.760419 0.649433 0
    outer loop
      vertex 9.48629 -0.661739 0
      vertex 9.55429 -0.74136 1
      vertex 9.55429 -0.74136 0
    endloop
  endfacet
  facet normal 0.430519 -0.902581 0
    outer loop
      vertex 8.81347 -9.82709 0
      vertex 8.90798 -9.78201 1
      vertex 8.81347 -9.82709 1
    endloop
  endfacet
  facet normal 0.430519 -0.902581 0
    outer loop
      vertex 8.90798 -9.78201 1
      vertex 8.81347 -9.82709 0
      vertex 8.90798 -9.78201 0
    endloop
  endfacet
  facet normal 0.902581 -0.430519 0
    outer loop
      vertex 9.78201 -8.90798 1
      vertex 9.82709 -8.81347 0
      vertex 9.82709 -8.81347 1
    endloop
  endfacet
  facet normal 0.902581 -0.430519 0
    outer loop
      vertex 9.82709 -8.81347 0
      vertex 9.78201 -8.90798 1
      vertex 9.78201 -8.90798 0
    endloop
  endfacet
  facet normal -0.566422 -0.824115 0
    outer loop
      vertex 0.824429 -9.61803 0
      vertex 0.910722 -9.67734 1
      vertex 0.824429 -9.61803 1
    endloop
  endfacet
  facet normal -0.566422 -0.824115 -0
    outer loop
      vertex 0.910722 -9.67734 1
      vertex 0.824429 -9.61803 0
      vertex 0.910722 -9.67734 0
    endloop
  endfacet
  facet normal -0.0784526 0.996918 0
    outer loop
      vertex 1.89533 -0.00274181 0
      vertex 1.79094 -0.0109568 1
      vertex 1.89533 -0.00274181 1
    endloop
  endfacet
  facet normal -0.0784526 0.996918 0
    outer loop
      vertex 1.79094 -0.0109568 1
      vertex 1.89533 -0.00274181 0
      vertex 1.79094 -0.0109568 0
    endloop
  endfacet
  facet normal 0.0261858 0.999657 -0
    outer loop
      vertex 8.10467 -0.00274181 0
      vertex 8 0 1
      vertex 8.10467 -0.00274181 1
    endloop
  endfacet
  facet normal 0.0261858 0.999657 0
    outer loop
      vertex 8 0 1
      vertex 8.10467 -0.00274181 0
      vertex 8 0 0
    endloop
  endfacet
  facet normal -0.649449 0.760405 0
    outer loop
      vertex 0.741359 -0.445708 0
      vertex 0.661738 -0.513711 1
      vertex 0.741359 -0.445708 1
    endloop
  endfacet
  facet normal -0.649449 0.760405 0
    outer loop
      vertex 0.661738 -0.513711 1
      vertex 0.741359 -0.445708 0
      vertex 0.661738 -0.513711 0
    endloop
  endfacet
  facet normal 0.477138 -0.878828 0
    outer loop
      vertex 8.90798 -9.78201 0
      vertex 9 -9.73205 1
      vertex 8.90798 -9.78201 1
    endloop
  endfacet
  facet normal 0.477138 -0.878828 0
    outer loop
      vertex 9 -9.73205 1
      vertex 8.90798 -9.78201 0
      vertex 9 -9.73205 0
    endloop
  endfacet
  facet normal 0.688365 0.725364 -0
    outer loop
      vertex 9.41421 -0.585787 0
      vertex 9.33826 -0.513711 1
      vertex 9.41421 -0.585787 1
    endloop
  endfacet
  facet normal 0.688365 0.725364 0
    outer loop
      vertex 9.33826 -0.513711 1
      vertex 9.41421 -0.585787 0
      vertex 9.33826 -0.513711 0
    endloop
  endfacet
  facet normal -0.333764 -0.942657 0
    outer loop
      vertex 1.28326 -9.86716 0
      vertex 1.38197 -9.90211 1
      vertex 1.28326 -9.86716 1
    endloop
  endfacet
  facet normal -0.333764 -0.942657 -0
    outer loop
      vertex 1.38197 -9.90211 1
      vertex 1.28326 -9.86716 0
      vertex 1.38197 -9.90211 0
    endloop
  endfacet
  facet normal 0.649438 -0.760415 0
    outer loop
      vertex 9.25864 -9.55429 0
      vertex 9.33826 -9.48629 1
      vertex 9.25864 -9.55429 1
    endloop
  endfacet
  facet normal 0.649438 -0.760415 0
    outer loop
      vertex 9.33826 -9.48629 1
      vertex 9.25864 -9.55429 0
      vertex 9.33826 -9.48629 0
    endloop
  endfacet
  facet normal -0.130462 -0.991453 0
    outer loop
      vertex 1.68713 -9.97538 0
      vertex 1.79094 -9.98904 1
      vertex 1.68713 -9.97538 1
    endloop
  endfacet
  facet normal -0.130462 -0.991453 -0
    outer loop
      vertex 1.79094 -9.98904 1
      vertex 1.68713 -9.97538 0
      vertex 1.79094 -9.98904 0
    endloop
  endfacet
  facet normal 0.760415 -0.649438 0
    outer loop
      vertex 9.48629 -9.33826 1
      vertex 9.55429 -9.25864 0
      vertex 9.55429 -9.25864 1
    endloop
  endfacet
  facet normal 0.760415 -0.649438 0
    outer loop
      vertex 9.55429 -9.25864 0
      vertex 9.48629 -9.33826 1
      vertex 9.48629 -9.33826 0
    endloop
  endfacet
  facet normal 0.852644 -0.522493 0
    outer loop
      vertex 9.67734 -9.08928 1
      vertex 9.73205 -9 0
      vertex 9.73205 -9 1
    endloop
  endfacet
  facet normal 0.852644 -0.522493 0
    outer loop
      vertex 9.73205 -9 0
      vertex 9.67734 -9.08928 1
      vertex 9.67734 -9.08928 0
    endloop
  endfacet
  facet normal 0.566436 -0.824106 0
    outer loop
      vertex 9.08928 -9.67734 0
      vertex 9.17557 -9.61803 1
      vertex 9.08928 -9.67734 1
    endloop
  endfacet
  facet normal 0.566436 -0.824106 0
    outer loop
      vertex 9.17557 -9.61803 1
      vertex 9.08928 -9.67734 0
      vertex 9.17557 -9.61803 0
    endloop
  endfacet
  facet normal -0.996918 0.0784522 0
    outer loop
      vertex 0.00274086 -1.89533 0
      vertex 0.0109558 -1.79094 1
      vertex 0.0109558 -1.79094 0
    endloop
  endfacet
  facet normal -0.996918 0.0784522 0
    outer loop
      vertex 0.0109558 -1.79094 1
      vertex 0.00274086 -1.89533 0
      vertex 0.00274086 -1.89533 1
    endloop
  endfacet
  facet normal 0.566423 0.824115 -0
    outer loop
      vertex 9.17557 -0.381967 0
      vertex 9.08928 -0.322659 1
      vertex 9.17557 -0.381967 1
    endloop
  endfacet
  facet normal 0.566423 0.824115 0
    outer loop
      vertex 9.08928 -0.322659 1
      vertex 9.17557 -0.381967 0
      vertex 9.08928 -0.322659 0
    endloop
  endfacet
  facet normal 0.47716 0.878816 -0
    outer loop
      vertex 9 -0.26795 0
      vertex 8.90798 -0.217987 1
      vertex 9 -0.26795 1
    endloop
  endfacet
  facet normal 0.47716 0.878816 0
    outer loop
      vertex 8.90798 -0.217987 1
      vertex 9 -0.26795 0
      vertex 8.90798 -0.217987 0
    endloop
  endfacet
  facet normal -0.878816 0.47716 0
    outer loop
      vertex 0.217986 -1.09202 0
      vertex 0.267949 -1 1
      vertex 0.267949 -1 0
    endloop
  endfacet
  facet normal -0.878816 0.47716 0
    outer loop
      vertex 0.267949 -1 1
      vertex 0.217986 -1.09202 0
      vertex 0.217986 -1.09202 1
    endloop
  endfacet
  facet normal 0.608756 0.793357 -0
    outer loop
      vertex 9.25864 -0.445708 0
      vertex 9.17557 -0.381967 1
      vertex 9.25864 -0.445708 1
    endloop
  endfacet
  facet normal 0.608756 0.793357 0
    outer loop
      vertex 9.17557 -0.381967 1
      vertex 9.25864 -0.445708 0
      vertex 9.17557 -0.381967 0
    endloop
  endfacet
  facet normal -0.182229 -0.983256 0
    outer loop
      vertex 1.58418 -9.9563 0
      vertex 1.68713 -9.97538 1
      vertex 1.58418 -9.9563 1
    endloop
  endfacet
  facet normal -0.182229 -0.983256 -0
    outer loop
      vertex 1.68713 -9.97538 1
      vertex 1.58418 -9.9563 0
      vertex 1.68713 -9.97538 0
    endloop
  endfacet
  facet normal -0.942651 -0.33378 0
    outer loop
      vertex 0.132838 -8.71674 0
      vertex 0.0978861 -8.61803 1
      vertex 0.0978861 -8.61803 0
    endloop
  endfacet
  facet normal -0.942651 -0.33378 0
    outer loop
      vertex 0.0978861 -8.61803 1
      vertex 0.132838 -8.71674 0
      vertex 0.132838 -8.71674 1
    endloop
  endfacet
  facet normal 0.18224 0.983254 -0
    outer loop
      vertex 8.41582 -0.043705 0
      vertex 8.31287 -0.0246239 1
      vertex 8.41582 -0.043705 1
    endloop
  endfacet
  facet normal 0.18224 0.983254 0
    outer loop
      vertex 8.31287 -0.0246239 1
      vertex 8.41582 -0.043705 0
      vertex 8.31287 -0.0246239 0
    endloop
  endfacet
  facet normal 1 -0 0
    outer loop
      vertex 10 -8 1
      vertex 10 -2 0
      vertex 10 -2 1
    endloop
  endfacet
  facet normal 1 0 0
    outer loop
      vertex 10 -2 0
      vertex 10 -8 1
      vertex 10 -8 0
    endloop
  endfacet
  facet normal 0.793362 -0.60875 0
    outer loop
      vertex 9.55429 -9.25864 1
      vertex 9.61803 -9.17557 0
      vertex 9.61803 -9.17557 1
    endloop
  endfacet
  facet normal 0.793362 -0.60875 0
    outer loop
      vertex 9.61803 -9.17557 0
      vertex 9.55429 -9.25864 1
      vertex 9.55429 -9.25864 0
    endloop
  endfacet
  facet normal -0.824119 -0.566416 0
    outer loop
      vertex 0.381966 -9.17557 0
      vertex 0.322659 -9.08928 1
      vertex 0.322659 -9.08928 0
    endloop
  endfacet
  facet normal -0.824119 -0.566416 0
    outer loop
      vertex 0.322659 -9.08928 1
      vertex 0.381966 -9.17557 0
      vertex 0.381966 -9.17557 1
    endloop
  endfacet
  facet normal -0.477138 -0.878828 0
    outer loop
      vertex 1 -9.73205 0
      vertex 1.09202 -9.78201 1
      vertex 1 -9.73205 1
    endloop
  endfacet
  facet normal -0.477138 -0.878828 -0
    outer loop
      vertex 1.09202 -9.78201 1
      vertex 1 -9.73205 0
      vertex 1.09202 -9.78201 0
    endloop
  endfacet
  facet normal -0.0261858 0.999657 0
    outer loop
      vertex 2 0 0
      vertex 1.89533 -0.00274181 1
      vertex 2 0 1
    endloop
  endfacet
  facet normal -0.0261858 0.999657 0
    outer loop
      vertex 1.89533 -0.00274181 1
      vertex 2 0 0
      vertex 1.89533 -0.00274181 0
    endloop
  endfacet
  facet normal -0.0261685 -0.999658 0
    outer loop
      vertex 1.89533 -9.99726 0
      vertex 2 -10 1
      vertex 1.89533 -9.99726 1
    endloop
  endfacet
  facet normal -0.0261685 -0.999658 -0
    outer loop
      vertex 2 -10 1
      vertex 1.89533 -9.99726 0
      vertex 2 -10 0
    endloop
  endfacet
  facet normal -0.760405 0.649449 0
    outer loop
      vertex 0.445707 -0.74136 0
      vertex 0.51371 -0.661739 1
      vertex 0.51371 -0.661739 0
    endloop
  endfacet
  facet normal -0.760405 0.649449 0
    outer loop
      vertex 0.51371 -0.661739 1
      vertex 0.445707 -0.74136 0
      vertex 0.445707 -0.74136 1
    endloop
  endfacet
  facet normal -0.725364 -0.688365 0
    outer loop
      vertex 0.585786 -9.41421 0
      vertex 0.51371 -9.33826 1
      vertex 0.51371 -9.33826 0
    endloop
  endfacet
  facet normal -0.725364 -0.688365 0
    outer loop
      vertex 0.51371 -9.33826 1
      vertex 0.585786 -9.41421 0
      vertex 0.585786 -9.41421 1
    endloop
  endfacet
  facet normal 0.923869 0.382709 0
    outer loop
      vertex 9.86716 -1.28326 1
      vertex 9.82709 -1.18653 0
      vertex 9.82709 -1.18653 1
    endloop
  endfacet
  facet normal 0.923869 0.382709 0
    outer loop
      vertex 9.82709 -1.18653 0
      vertex 9.86716 -1.28326 1
      vertex 9.86716 -1.28326 0
    endloop
  endfacet
  facet normal 0.182229 -0.983256 0
    outer loop
      vertex 8.31287 -9.97538 0
      vertex 8.41582 -9.9563 1
      vertex 8.31287 -9.97538 1
    endloop
  endfacet
  facet normal 0.182229 -0.983256 0
    outer loop
      vertex 8.41582 -9.9563 1
      vertex 8.31287 -9.97538 0
      vertex 8.41582 -9.9563 0
    endloop
  endfacet
  facet normal 0 1 -0
    outer loop
      vertex 8 0 0
      vertex 2 0 1
      vertex 8 0 1
    endloop
  endfacet
  facet normal 0 1 0
    outer loop
      vertex 2 0 1
      vertex 8 0 0
      vertex 2 0 0
    endloop
  endfacet
  facet normal 0.233434 0.972373 -0
    outer loop
      vertex 8.51764 -0.0681486 0
      vertex 8.41582 -0.043705 1
      vertex 8.51764 -0.0681486 1
    endloop
  endfacet
  facet normal 0.233434 0.972373 0
    outer loop
      vertex 8.41582 -0.043705 1
      vertex 8.51764 -0.0681486 0
      vertex 8.41582 -0.043705 0
    endloop
  endfacet
  facet normal 0.130529 0.991445 -0
    outer loop
      vertex 8.31287 -0.0246239 0
      vertex 8.20906 -0.0109568 1
      vertex 8.31287 -0.0246239 1
    endloop
  endfacet
  facet normal 0.130529 0.991445 0
    outer loop
      vertex 8.20906 -0.0109568 1
      vertex 8.31287 -0.0246239 0
      vertex 8.20906 -0.0109568 0
    endloop
  endfacet
  facet normal -0.382709 -0.923869 0
    outer loop
      vertex 1.18653 -9.82709 0
      vertex 1.28326 -9.86716 1
      vertex 1.18653 -9.82709 1
    endloop
  endfacet
  facet normal -0.382709 -0.923869 -0
    outer loop
      vertex 1.28326 -9.86716 1
      vertex 1.18653 -9.82709 0
      vertex 1.28326 -9.86716 0
    endloop
  endfacet
  facet normal -0.688376 -0.725354 0
    outer loop
      vertex 0.585786 -9.41421 0
      vertex 0.661738 -9.48629 1
      vertex 0.585786 -9.41421 1
    endloop
  endfacet
  facet normal -0.688376 -0.725354 -0
    outer loop
      vertex 0.661738 -9.48629 1
      vertex 0.585786 -9.41421 0
      vertex 0.661738 -9.48629 0
    endloop
  endfacet
  facet normal -0.958816 -0.284029 0
    outer loop
      vertex 0.0978861 -8.61803 0
      vertex 0.0681477 -8.51764 1
      vertex 0.0681477 -8.51764 0
    endloop
  endfacet
  facet normal -0.958816 -0.284029 0
    outer loop
      vertex 0.0681477 -8.51764 1
      vertex 0.0978861 -8.61803 0
      vertex 0.0978861 -8.61803 1
    endloop
  endfacet
  facet normal -0.725373 0.688356 0
    outer loop
      vertex 0.51371 -0.661739 0
      vertex 0.585786 -0.585787 1
      vertex 0.585786 -0.585787 0
    endloop
  endfacet
  facet normal -0.725373 0.688356 0
    outer loop
      vertex 0.585786 -0.585787 1
      vertex 0.51371 -0.661739 0
      vertex 0.51371 -0.661739 1
    endloop
  endfacet
  facet normal -0.60875 -0.793362 0
    outer loop
      vertex 0.741359 -9.55429 0
      vertex 0.824429 -9.61803 1
      vertex 0.741359 -9.55429 1
    endloop
  endfacet
  facet normal -0.60875 -0.793362 -0
    outer loop
      vertex 0.824429 -9.61803 1
      vertex 0.741359 -9.55429 0
      vertex 0.824429 -9.61803 0
    endloop
  endfacet
  facet normal 0.0784526 0.996918 -0
    outer loop
      vertex 8.20906 -0.0109568 0
      vertex 8.10467 -0.00274181 1
      vertex 8.20906 -0.0109568 1
    endloop
  endfacet
  facet normal 0.0784526 0.996918 0
    outer loop
      vertex 8.10467 -0.00274181 1
      vertex 8.20906 -0.0109568 0
      vertex 8.10467 -0.00274181 0
    endloop
  endfacet
  facet normal -0.983254 0.18224 0
    outer loop
      vertex 0.0246229 -1.68713 0
      vertex 0.043704 -1.58418 1
      vertex 0.043704 -1.58418 0
    endloop
  endfacet
  facet normal -0.983254 0.18224 0
    outer loop
      vertex 0.043704 -1.58418 1
      vertex 0.0246229 -1.68713 0
      vertex 0.0246229 -1.68713 1
    endloop
  endfacet
  facet normal 0.983256 -0.182229 0
    outer loop
      vertex 9.9563 -8.41582 1
      vertex 9.97538 -8.31287 0
      vertex 9.97538 -8.31287 1
    endloop
  endfacet
  facet normal 0.983256 -0.182229 0
    outer loop
      vertex 9.97538 -8.31287 0
      vertex 9.9563 -8.41582 1
      vertex 9.9563 -8.41582 0
    endloop
  endfacet
  facet normal 0.996914 0.0785002 0
    outer loop
      vertex 9.99726 -1.89533 1
      vertex 9.98904 -1.79094 0
      vertex 9.98904 -1.79094 1
    endloop
  endfacet
  facet normal 0.996914 0.0785002 0
    outer loop
      vertex 9.98904 -1.79094 0
      vertex 9.99726 -1.89533 1
      vertex 9.99726 -1.89533 0
    endloop
  endfacet
  facet normal -0.522501 -0.852639 0
    outer loop
      vertex 0.910722 -9.67734 0
      vertex 1 -9.73205 1
      vertex 0.910722 -9.67734 1
    endloop
  endfacet
  facet normal -0.522501 -0.852639 -0
    outer loop
      vertex 1 -9.73205 1
      vertex 0.910722 -9.67734 0
      vertex 1 -9.73205 0
    endloop
  endfacet
  facet normal 0.725345 -0.688385 0
    outer loop
      vertex 9.41421 -9.41421 1
      vertex 9.48629 -9.33826 0
      vertex 9.48629 -9.33826 1
    endloop
  endfacet
  facet normal 0.725345 -0.688385 0
    outer loop
      vertex 9.48629 -9.33826 0
      vertex 9.41421 -9.41421 1
      vertex 9.41421 -9.41421 0
    endloop
  endfacet
  facet normal 0.522493 -0.852644 0
    outer loop
      vertex 9 -9.73205 0
      vertex 9.08928 -9.67734 1
      vertex 9 -9.73205 1
    endloop
  endfacet
  facet normal 0.522493 -0.852644 0
    outer loop
      vertex 9.08928 -9.67734 1
      vertex 9 -9.73205 0
      vertex 9.08928 -9.67734 0
    endloop
  endfacet
  facet normal 0.725354 0.688376 0
    outer loop
      vertex 9.48629 -0.661739 1
      vertex 9.41421 -0.585787 0
      vertex 9.41421 -0.585787 1
    endloop
  endfacet
  facet normal 0.725354 0.688376 0
    outer loop
      vertex 9.41421 -0.585787 0
      vertex 9.48629 -0.661739 1
      vertex 9.48629 -0.661739 0
    endloop
  endfacet
  facet normal 0.824106 -0.566436 0
    outer loop
      vertex 9.61803 -9.17557 1
      vertex 9.67734 -9.08928 0
      vertex 9.67734 -9.08928 1
    endloop
  endfacet
  facet normal 0.824106 -0.566436 0
    outer loop
      vertex 9.67734 -9.08928 0
      vertex 9.61803 -9.17557 1
      vertex 9.61803 -9.17557 0
    endloop
  endfacet
  facet normal 0.991453 0.130462 0
    outer loop
      vertex 9.98904 -1.79094 1
      vertex 9.97538 -1.68713 0
      vertex 9.97538 -1.68713 1
    endloop
  endfacet
  facet normal 0.991453 0.130462 0
    outer loop
      vertex 9.97538 -1.68713 0
      vertex 9.98904 -1.79094 1
      vertex 9.98904 -1.79094 0
    endloop
  endfacet
  facet normal 0.983256 0.182229 0
    outer loop
      vertex 9.97538 -1.68713 1
      vertex 9.9563 -1.58418 0
      vertex 9.9563 -1.58418 1
    endloop
  endfacet
  facet normal 0.983256 0.182229 0
    outer loop
      vertex 9.9563 -1.58418 0
      vertex 9.97538 -1.68713 1
      vertex 9.97538 -1.68713 0
    endloop
  endfacet
  facet normal 0.958812 0.284043 0
    outer loop
      vertex 9.93185 -1.48236 1
      vertex 9.90211 -1.38197 0
      vertex 9.90211 -1.38197 1
    endloop
  endfacet
  facet normal 0.958812 0.284043 0
    outer loop
      vertex 9.90211 -1.38197 0
      vertex 9.93185 -1.48236 1
      vertex 9.93185 -1.48236 0
    endloop
  endfacet
  facet normal -0.382717 0.923866 0
    outer loop
      vertex 1.28326 -0.132839 0
      vertex 1.18653 -0.17291 1
      vertex 1.28326 -0.132839 1
    endloop
  endfacet
  facet normal -0.382717 0.923866 0
    outer loop
      vertex 1.18653 -0.17291 1
      vertex 1.28326 -0.132839 0
      vertex 1.18653 -0.17291 0
    endloop
  endfacet
  facet normal -0.0785002 -0.996914 0
    outer loop
      vertex 1.79094 -9.98904 0
      vertex 1.89533 -9.99726 1
      vertex 1.79094 -9.98904 1
    endloop
  endfacet
  facet normal -0.0785002 -0.996914 -0
    outer loop
      vertex 1.89533 -9.99726 1
      vertex 1.79094 -9.98904 0
      vertex 1.89533 -9.99726 0
    endloop
  endfacet
  facet normal -0.430496 0.902593 0
    outer loop
      vertex 1.18653 -0.17291 0
      vertex 1.09202 -0.217987 1
      vertex 1.18653 -0.17291 1
    endloop
  endfacet
  facet normal -0.430496 0.902593 0
    outer loop
      vertex 1.09202 -0.217987 1
      vertex 1.18653 -0.17291 0
      vertex 1.09202 -0.217987 0
    endloop
  endfacet
  facet normal -0.760401 -0.649454 0
    outer loop
      vertex 0.51371 -9.33826 0
      vertex 0.445707 -9.25864 1
      vertex 0.445707 -9.25864 0
    endloop
  endfacet
  facet normal -0.760401 -0.649454 0
    outer loop
      vertex 0.445707 -9.25864 1
      vertex 0.51371 -9.33826 0
      vertex 0.51371 -9.33826 1
    endloop
  endfacet
  facet normal -0.852644 -0.522493 0
    outer loop
      vertex 0.322659 -9.08928 0
      vertex 0.267949 -9 1
      vertex 0.267949 -9 0
    endloop
  endfacet
  facet normal -0.852644 -0.522493 0
    outer loop
      vertex 0.267949 -9 1
      vertex 0.322659 -9.08928 0
      vertex 0.322659 -9.08928 1
    endloop
  endfacet
  facet normal -0.972372 0.233435 0
    outer loop
      vertex 0.043704 -1.58418 0
      vertex 0.0681477 -1.48236 1
      vertex 0.0681477 -1.48236 0
    endloop
  endfacet
  facet normal -0.972372 0.233435 0
    outer loop
      vertex 0.0681477 -1.48236 1
      vertex 0.043704 -1.58418 0
      vertex 0.043704 -1.58418 1
    endloop
  endfacet
  facet normal 0.233492 -0.972359 0
    outer loop
      vertex 8.41582 -9.9563 0
      vertex 8.51764 -9.93185 1
      vertex 8.41582 -9.9563 1
    endloop
  endfacet
  facet normal 0.233492 -0.972359 0
    outer loop
      vertex 8.51764 -9.93185 1
      vertex 8.41582 -9.9563 0
      vertex 8.51764 -9.93185 0
    endloop
  endfacet
  facet normal 0.972359 0.233492 0
    outer loop
      vertex 9.9563 -1.58418 1
      vertex 9.93185 -1.48236 0
      vertex 9.93185 -1.48236 1
    endloop
  endfacet
  facet normal 0.972359 0.233492 0
    outer loop
      vertex 9.93185 -1.48236 0
      vertex 9.9563 -1.58418 1
      vertex 9.9563 -1.58418 0
    endloop
  endfacet
  facet normal 0.878828 0.477138 0
    outer loop
      vertex 9.78201 -1.09202 1
      vertex 9.73205 -1 0
      vertex 9.73205 -1 1
    endloop
  endfacet
  facet normal 0.878828 0.477138 0
    outer loop
      vertex 9.73205 -1 0
      vertex 9.78201 -1.09202 1
      vertex 9.78201 -1.09202 0
    endloop
  endfacet
  facet normal 0.688385 -0.725345 0
    outer loop
      vertex 9.33826 -9.48629 0
      vertex 9.41421 -9.41421 1
      vertex 9.33826 -9.48629 1
    endloop
  endfacet
  facet normal 0.688385 -0.725345 0
    outer loop
      vertex 9.41421 -9.41421 1
      vertex 9.33826 -9.48629 0
      vertex 9.41421 -9.41421 0
    endloop
  endfacet
  facet normal -0.688356 0.725373 0
    outer loop
      vertex 0.661738 -0.513711 0
      vertex 0.585786 -0.585787 1
      vertex 0.661738 -0.513711 1
    endloop
  endfacet
  facet normal -0.688356 0.725373 0
    outer loop
      vertex 0.585786 -0.585787 1
      vertex 0.661738 -0.513711 0
      vertex 0.585786 -0.585787 0
    endloop
  endfacet
  facet normal 0.793362 0.60875 0
    outer loop
      vertex 9.61803 -0.82443 1
      vertex 9.55429 -0.74136 0
      vertex 9.55429 -0.74136 1
    endloop
  endfacet
  facet normal 0.793362 0.60875 0
    outer loop
      vertex 9.55429 -0.74136 0
      vertex 9.61803 -0.82443 1
      vertex 9.61803 -0.82443 0
    endloop
  endfacet
  facet normal -0.923866 0.382717 0
    outer loop
      vertex 0.132838 -1.28326 0
      vertex 0.172909 -1.18653 1
      vertex 0.172909 -1.18653 0
    endloop
  endfacet
  facet normal -0.923866 0.382717 0
    outer loop
      vertex 0.172909 -1.18653 1
      vertex 0.132838 -1.28326 0
      vertex 0.132838 -1.28326 1
    endloop
  endfacet
  facet normal 0.824115 0.566422 0
    outer loop
      vertex 9.67734 -0.910723 1
      vertex 9.61803 -0.82443 0
      vertex 9.61803 -0.82443 1
    endloop
  endfacet
  facet normal 0.824115 0.566422 0
    outer loop
      vertex 9.61803 -0.82443 0
      vertex 9.67734 -0.910723 1
      vertex 9.67734 -0.910723 0
    endloop
  endfacet
  facet normal -0.793357 0.608756 0
    outer loop
      vertex 0.381966 -0.82443 0
      vertex 0.445707 -0.74136 1
      vertex 0.445707 -0.74136 0
    endloop
  endfacet
  facet normal -0.793357 0.608756 0
    outer loop
      vertex 0.445707 -0.74136 1
      vertex 0.381966 -0.82443 0
      vertex 0.381966 -0.82443 1
    endloop
  endfacet
  facet normal -0.233434 0.972373 0
    outer loop
      vertex 1.58418 -0.043705 0
      vertex 1.48236 -0.0681486 1
      vertex 1.58418 -0.043705 1
    endloop
  endfacet
  facet normal -0.233434 0.972373 0
    outer loop
      vertex 1.48236 -0.0681486 1
      vertex 1.58418 -0.043705 0
      vertex 1.48236 -0.0681486 0
    endloop
  endfacet
  facet normal -0.130529 0.991445 0
    outer loop
      vertex 1.79094 -0.0109568 0
      vertex 1.68713 -0.0246239 1
      vertex 1.79094 -0.0109568 1
    endloop
  endfacet
  facet normal -0.130529 0.991445 0
    outer loop
      vertex 1.68713 -0.0246239 1
      vertex 1.79094 -0.0109568 0
      vertex 1.68713 -0.0246239 0
    endloop
  endfacet
  facet normal -0.902593 0.430496 0
    outer loop
      vertex 0.172909 -1.18653 0
      vertex 0.217986 -1.09202 1
      vertex 0.217986 -1.09202 0
    endloop
  endfacet
  facet normal -0.902593 0.430496 0
    outer loop
      vertex 0.217986 -1.09202 1
      vertex 0.172909 -1.18653 0
      vertex 0.172909 -1.18653 1
    endloop
  endfacet
  facet normal -0.942651 0.33378 0
    outer loop
      vertex 0.0978861 -1.38197 0
      vertex 0.132838 -1.28326 1
      vertex 0.132838 -1.28326 0
    endloop
  endfacet
  facet normal -0.942651 0.33378 0
    outer loop
      vertex 0.132838 -1.28326 1
      vertex 0.0978861 -1.38197 0
      vertex 0.0978861 -1.38197 1
    endloop
  endfacet
  facet normal -0.649433 -0.760419 0
    outer loop
      vertex 0.661738 -9.48629 0
      vertex 0.741359 -9.55429 1
      vertex 0.661738 -9.48629 1
    endloop
  endfacet
  facet normal -0.649433 -0.760419 -0
    outer loop
      vertex 0.741359 -9.55429 1
      vertex 0.661738 -9.48629 0
      vertex 0.741359 -9.55429 0
    endloop
  endfacet
  facet normal -0 0 1
    outer loop
      vertex 2 0 1
      vertex 8 -3.95 1
      vertex 8 0 1
    endloop
  endfacet
  facet normal 0 0 1
    outer loop
      vertex 2 0 1
      vertex 2 -3.95 1
      vertex 8 -3.95 1
    endloop
  endfacet
  facet normal -0 0 1
    outer loop
      vertex 1.89533 -0.00274181 1
      vertex 2 -3.95 1
      vertex 2 0 1
    endloop
  endfacet
  facet normal 0 0 1
    outer loop
      vertex 2 -3.95 1
      vertex 0 -2 1
      vertex 2 -6.05 1
    endloop
  endfacet
  facet normal -0 0 1
    outer loop
      vertex 1.79094 -0.0109568 1
      vertex 2 -3.95 1
      vertex 1.89533 -0.00274181 1
    endloop
  endfacet
  facet normal 0 0 1
    outer loop
      vertex 0 -8 1
      vertex 2 -6.05 1
      vertex 0 -2 1
    endloop
  endfacet
  facet normal -0 0 1
    outer loop
      vertex 1.68713 -0.0246239 1
      vertex 2 -3.95 1
      vertex 1.79094 -0.0109568 1
    endloop
  endfacet
  facet normal 0 -0 1
    outer loop
      vertex 1.18653 -9.82709 1
      vertex 2 -6.05 1
      vertex 0 -8 1
    endloop
  endfacet
  facet normal -0 0 1
    outer loop
      vertex 1.58418 -0.043705 1
      vertex 2 -3.95 1
      vertex 1.68713 -0.0246239 1
    endloop
  endfacet
  facet normal 0 0 1
    outer loop
      vertex 2 -6.05 1
      vertex 1.89533 -9.99726 1
      vertex 2 -10 1
    endloop
  endfacet
  facet normal -0 0 1
    outer loop
      vertex 1.48236 -0.0681486 1
      vertex 2 -3.95 1
      vertex 1.58418 -0.043705 1
    endloop
  endfacet
  facet normal 0 0 1
    outer loop
      vertex 2 -6.05 1
      vertex 1.79094 -9.98904 1
      vertex 1.89533 -9.99726 1
    endloop
  endfacet
  facet normal -0 0 1
    outer loop
      vertex 1.38197 -0.097887 1
      vertex 2 -3.95 1
      vertex 1.48236 -0.0681486 1
    endloop
  endfacet
  facet normal 0 0 1
    outer loop
      vertex 2 -6.05 1
      vertex 1.68713 -9.97538 1
      vertex 1.79094 -9.98904 1
    endloop
  endfacet
  facet normal -0 0 1
    outer loop
      vertex 1.28326 -0.132839 1
      vertex 2 -3.95 1
      vertex 1.38197 -0.097887 1
    endloop
  endfacet
  facet normal 0 0 1
    outer loop
      vertex 2 -6.05 1
      vertex 1.58418 -9.9563 1
      vertex 1.68713 -9.97538 1
    endloop
  endfacet
  facet normal -0 0 1
    outer loop
      vertex 1.18653 -0.17291 1
      vertex 2 -3.95 1
      vertex 1.28326 -0.132839 1
    endloop
  endfacet
  facet normal 0 0 1
    outer loop
      vertex 2 -6.05 1
      vertex 1.48236 -9.93185 1
      vertex 1.58418 -9.9563 1
    endloop
  endfacet
  facet normal 0 0 1
    outer loop
      vertex 2 -3.95 1
      vertex 1.18653 -0.17291 1
      vertex 0 -2 1
    endloop
  endfacet
  facet normal 0 0 1
    outer loop
      vertex 2 -6.05 1
      vertex 1.38197 -9.90211 1
      vertex 1.48236 -9.93185 1
    endloop
  endfacet
  facet normal 0 0 1
    outer loop
      vertex 0 -2 1
      vertex 1.18653 -0.17291 1
      vertex 1.09202 -0.217987 1
    endloop
  endfacet
  facet normal 0 0 1
    outer loop
      vertex 2 -6.05 1
      vertex 1.28326 -9.86716 1
      vertex 1.38197 -9.90211 1
    endloop
  endfacet
  facet normal 0 0 1
    outer loop
      vertex 0 -2 1
      vertex 1.09202 -0.217987 1
      vertex 1 -0.26795 1
    endloop
  endfacet
  facet normal 0 0 1
    outer loop
      vertex 2 -6.05 1
      vertex 1.18653 -9.82709 1
      vertex 1.28326 -9.86716 1
    endloop
  endfacet
  facet normal 0 0 1
    outer loop
      vertex 0 -2 1
      vertex 1 -0.26795 1
      vertex 0.910722 -0.322659 1
    endloop
  endfacet
  facet normal 0 0 1
    outer loop
      vertex 1.18653 -9.82709 1
      vertex 0 -8 1
      vertex 1.09202 -9.78201 1
    endloop
  endfacet
  facet normal 0 0 1
    outer loop
      vertex 0 -2 1
      vertex 0.910722 -0.322659 1
      vertex 0.824429 -0.381967 1
    endloop
  endfacet
  facet normal 0 0 1
    outer loop
      vertex 1.09202 -9.78201 1
      vertex 0 -8 1
      vertex 1 -9.73205 1
    endloop
  endfacet
  facet normal 0 0 1
    outer loop
      vertex 0 -2 1
      vertex 0.824429 -0.381967 1
      vertex 0.741359 -0.445708 1
    endloop
  endfacet
  facet normal 0 0 1
    outer loop
      vertex 1 -9.73205 1
      vertex 0 -8 1
      vertex 0.910722 -9.67734 1
    endloop
  endfacet
  facet normal 0 0 1
    outer loop
      vertex 0 -2 1
      vertex 0.741359 -0.445708 1
      vertex 0.661738 -0.513711 1
    endloop
  endfacet
  facet normal 0 0 1
    outer loop
      vertex 0.910722 -9.67734 1
      vertex 0 -8 1
      vertex 0.824429 -9.61803 1
    endloop
  endfacet
  facet normal 0 0 1
    outer loop
      vertex 0 -2 1
      vertex 0.661738 -0.513711 1
      vertex 0.585786 -0.585787 1
    endloop
  endfacet
  facet normal 0 0 1
    outer loop
      vertex 0.824429 -9.61803 1
      vertex 0 -8 1
      vertex 0.741359 -9.55429 1
    endloop
  endfacet
  facet normal 0 0 1
    outer loop
      vertex 0 -2 1
      vertex 0.585786 -0.585787 1
      vertex 0.51371 -0.661739 1
    endloop
  endfacet
  facet normal 0 0 1
    outer loop
      vertex 0.741359 -9.55429 1
      vertex 0 -8 1
      vertex 0.661738 -9.48629 1
    endloop
  endfacet
  facet normal 0 0 1
    outer loop
      vertex 0 -2 1
      vertex 0.51371 -0.661739 1
      vertex 0.445707 -0.74136 1
    endloop
  endfacet
  facet normal 0 0 1
    outer loop
      vertex 0.661738 -9.48629 1
      vertex 0 -8 1
      vertex 0.585786 -9.41421 1
    endloop
  endfacet
  facet normal 0 0 1
    outer loop
      vertex 0 -2 1
      vertex 0.445707 -0.74136 1
      vertex 0.381966 -0.82443 1
    endloop
  endfacet
  facet normal 0 0 1
    outer loop
      vertex 0.585786 -9.41421 1
      vertex 0 -8 1
      vertex 0.51371 -9.33826 1
    endloop
  endfacet
  facet normal 0 0 1
    outer loop
      vertex 0 -2 1
      vertex 0.381966 -0.82443 1
      vertex 0.322659 -0.910723 1
    endloop
  endfacet
  facet normal 0 0 1
    outer loop
      vertex 0.51371 -9.33826 1
      vertex 0 -8 1
      vertex 0.445707 -9.25864 1
    endloop
  endfacet
  facet normal 0 0 1
    outer loop
      vertex 0 -2 1
      vertex 0.322659 -0.910723 1
      vertex 0.267949 -1 1
    endloop
  endfacet
  facet normal 0 0 1
    outer loop
      vertex 0.445707 -9.25864 1
      vertex 0 -8 1
      vertex 0.381966 -9.17557 1
    endloop
  endfacet
  facet normal 0 0 1
    outer loop
      vertex 0 -2 1
      vertex 0.267949 -1 1
      vertex 0.217986 -1.09202 1
    endloop
  endfacet
  facet normal 0 0 1
    outer loop
      vertex 0.381966 -9.17557 1
      vertex 0 -8 1
      vertex 0.322659 -9.08928 1
    endloop
  endfacet
  facet normal 0 0 1
    outer loop
      vertex 0 -2 1
      vertex 0.217986 -1.09202 1
      vertex 0.172909 -1.18653 1
    endloop
  endfacet
  facet normal 0 0 1
    outer loop
      vertex 0.322659 -9.08928 1
      vertex 0 -8 1
      vertex 0.267949 -9 1
    endloop
  endfacet
  facet normal 0 0 1
    outer loop
      vertex 0 -2 1
      vertex 0.172909 -1.18653 1
      vertex 0.132838 -1.28326 1
    endloop
  endfacet
  facet normal 0 0 1
    outer loop
      vertex 0.267949 -9 1
      vertex 0 -8 1
      vertex 0.217986 -8.90798 1
    endloop
  endfacet
  facet normal 0 0 1
    outer loop
      vertex 0 -2 1
      vertex 0.132838 -1.28326 1
      vertex 0.0978861 -1.38197 1
    endloop
  endfacet
  facet normal 0 0 1
    outer loop
      vertex 0.217986 -8.90798 1
      vertex 0 -8 1
      vertex 0.172909 -8.81347 1
    endloop
  endfacet
  facet normal 0 0 1
    outer loop
      vertex 0 -2 1
      vertex 0.0978861 -1.38197 1
      vertex 0.0681477 -1.48236 1
    endloop
  endfacet
  facet normal 0 0 1
    outer loop
      vertex 0.172909 -8.81347 1
      vertex 0 -8 1
      vertex 0.132838 -8.71674 1
    endloop
  endfacet
  facet normal 0 0 1
    outer loop
      vertex 0 -2 1
      vertex 0.0681477 -1.48236 1
      vertex 0.043704 -1.58418 1
    endloop
  endfacet
  facet normal 0 0 1
    outer loop
      vertex 0.132838 -8.71674 1
      vertex 0 -8 1
      vertex 0.0978861 -8.61803 1
    endloop
  endfacet
  facet normal 0 0 1
    outer loop
      vertex 0 -2 1
      vertex 0.043704 -1.58418 1
      vertex 0.0246229 -1.68713 1
    endloop
  endfacet
  facet normal 0 0 1
    outer loop
      vertex 0.0978861 -8.61803 1
      vertex 0 -8 1
      vertex 0.0681477 -8.51764 1
    endloop
  endfacet
  facet normal 0 0 1
    outer loop
      vertex 0 -2 1
      vertex 0.0246229 -1.68713 1
      vertex 0.0109558 -1.79094 1
    endloop
  endfacet
  facet normal 0 0 1
    outer loop
      vertex 0.0681477 -8.51764 1
      vertex 0 -8 1
      vertex 0.043704 -8.41582 1
    endloop
  endfacet
  facet normal 0 0 1
    outer loop
      vertex 0 -2 1
      vertex 0.0109558 -1.79094 1
      vertex 0.00274086 -1.89533 1
    endloop
  endfacet
  facet normal 0 0 1
    outer loop
      vertex 0.043704 -8.41582 1
      vertex 0 -8 1
      vertex 0.0246229 -8.31287 1
    endloop
  endfacet
  facet normal 0 0 1
    outer loop
      vertex 0.0246229 -8.31287 1
      vertex 0 -8 1
      vertex 0.0109558 -8.20906 1
    endloop
  endfacet
  facet normal 0 0 1
    outer loop
      vertex 0.0109558 -8.20906 1
      vertex 0 -8 1
      vertex 0.00274086 -8.10467 1
    endloop
  endfacet
  facet normal 0 0 1
    outer loop
      vertex 8 -3.95 1
      vertex 10 -2 1
      vertex 9.99726 -1.89533 1
    endloop
  endfacet
  facet normal 0 0 1
    outer loop
      vertex 10 -2 1
      vertex 8 -3.95 1
      vertex 10 -8 1
    endloop
  endfacet
  facet normal 0 0 1
    outer loop
      vertex 8 -3.95 1
      vertex 9.99726 -1.89533 1
      vertex 9.98904 -1.79094 1
    endloop
  endfacet
  facet normal -0 0 1
    outer loop
      vertex 8 -6.05 1
      vertex 10 -8 1
      vertex 8 -3.95 1
    endloop
  endfacet
  facet normal 0 0 1
    outer loop
      vertex 8 -3.95 1
      vertex 9.98904 -1.79094 1
      vertex 9.97538 -1.68713 1
    endloop
  endfacet
  facet normal 0 0 1
    outer loop
      vertex 10 -8 1
      vertex 8 -6.05 1
      vertex 9.99726 -8.10467 1
    endloop
  endfacet
  facet normal 0 0 1
    outer loop
      vertex 8 -3.95 1
      vertex 9.97538 -1.68713 1
      vertex 9.9563 -1.58418 1
    endloop
  endfacet
  facet normal 0 0 1
    outer loop
      vertex 9.99726 -8.10467 1
      vertex 8 -6.05 1
      vertex 9.98904 -8.20906 1
    endloop
  endfacet
  facet normal 0 0 1
    outer loop
      vertex 8 -3.95 1
      vertex 9.9563 -1.58418 1
      vertex 9.93185 -1.48236 1
    endloop
  endfacet
  facet normal 0 0 1
    outer loop
      vertex 9.98904 -8.20906 1
      vertex 8 -6.05 1
      vertex 9.97538 -8.31287 1
    endloop
  endfacet
  facet normal 0 0 1
    outer loop
      vertex 8 -3.95 1
      vertex 9.93185 -1.48236 1
      vertex 9.90211 -1.38197 1
    endloop
  endfacet
  facet normal 0 0 1
    outer loop
      vertex 9.97538 -8.31287 1
      vertex 8 -6.05 1
      vertex 9.9563 -8.41582 1
    endloop
  endfacet
  facet normal 0 0 1
    outer loop
      vertex 8 -3.95 1
      vertex 9.90211 -1.38197 1
      vertex 9.86716 -1.28326 1
    endloop
  endfacet
  facet normal 0 0 1
    outer loop
      vertex 9.9563 -8.41582 1
      vertex 8 -6.05 1
      vertex 9.93185 -8.51764 1
    endloop
  endfacet
  facet normal 0 0 1
    outer loop
      vertex 8 -3.95 1
      vertex 9.86716 -1.28326 1
      vertex 9.82709 -1.18653 1
    endloop
  endfacet
  facet normal 0 0 1
    outer loop
      vertex 9.93185 -8.51764 1
      vertex 8 -6.05 1
      vertex 9.90211 -8.61803 1
    endloop
  endfacet
  facet normal 0 0 1
    outer loop
      vertex 8 -3.95 1
      vertex 9.82709 -1.18653 1
      vertex 9.78201 -1.09202 1
    endloop
  endfacet
  facet normal 0 0 1
    outer loop
      vertex 9.90211 -8.61803 1
      vertex 8 -6.05 1
      vertex 9.86716 -8.71674 1
    endloop
  endfacet
  facet normal 0 0 1
    outer loop
      vertex 8 -3.95 1
      vertex 9.78201 -1.09202 1
      vertex 9.73205 -1 1
    endloop
  endfacet
  facet normal 0 0 1
    outer loop
      vertex 9.86716 -8.71674 1
      vertex 8 -6.05 1
      vertex 9.82709 -8.81347 1
    endloop
  endfacet
  facet normal 0 0 1
    outer loop
      vertex 8 -3.95 1
      vertex 9.73205 -1 1
      vertex 9.67734 -0.910723 1
    endloop
  endfacet
  facet normal 0 0 1
    outer loop
      vertex 9.82709 -8.81347 1
      vertex 8 -6.05 1
      vertex 9.78201 -8.90798 1
    endloop
  endfacet
  facet normal 0 0 1
    outer loop
      vertex 8 -3.95 1
      vertex 9.67734 -0.910723 1
      vertex 9.61803 -0.82443 1
    endloop
  endfacet
  facet normal 0 0 1
    outer loop
      vertex 9.78201 -8.90798 1
      vertex 8 -6.05 1
      vertex 9.73205 -9 1
    endloop
  endfacet
  facet normal 0 0 1
    outer loop
      vertex 8 -3.95 1
      vertex 9.61803 -0.82443 1
      vertex 9.55429 -0.74136 1
    endloop
  endfacet
  facet normal 0 0 1
    outer loop
      vertex 9.73205 -9 1
      vertex 8 -6.05 1
      vertex 9.67734 -9.08928 1
    endloop
  endfacet
  facet normal 0 0 1
    outer loop
      vertex 8 -3.95 1
      vertex 9.55429 -0.74136 1
      vertex 9.48629 -0.661739 1
    endloop
  endfacet
  facet normal 0 0 1
    outer loop
      vertex 9.67734 -9.08928 1
      vertex 8 -6.05 1
      vertex 9.61803 -9.17557 1
    endloop
  endfacet
  facet normal 0 0 1
    outer loop
      vertex 8 -3.95 1
      vertex 9.48629 -0.661739 1
      vertex 9.41421 -0.585787 1
    endloop
  endfacet
  facet normal 0 0 1
    outer loop
      vertex 9.61803 -9.17557 1
      vertex 8 -6.05 1
      vertex 9.55429 -9.25864 1
    endloop
  endfacet
  facet normal 0 0 1
    outer loop
      vertex 8 -3.95 1
      vertex 9.41421 -0.585787 1
      vertex 9.33826 -0.513711 1
    endloop
  endfacet
  facet normal 0 0 1
    outer loop
      vertex 9.55429 -9.25864 1
      vertex 8 -6.05 1
      vertex 9.48629 -9.33826 1
    endloop
  endfacet
  facet normal 0 0 1
    outer loop
      vertex 8 -3.95 1
      vertex 9.33826 -0.513711 1
      vertex 9.25864 -0.445708 1
    endloop
  endfacet
  facet normal 0 0 1
    outer loop
      vertex 9.48629 -9.33826 1
      vertex 8 -6.05 1
      vertex 9.41421 -9.41421 1
    endloop
  endfacet
  facet normal 0 0 1
    outer loop
      vertex 8 -3.95 1
      vertex 9.25864 -0.445708 1
      vertex 9.17557 -0.381967 1
    endloop
  endfacet
  facet normal 0 0 1
    outer loop
      vertex 9.41421 -9.41421 1
      vertex 8 -6.05 1
      vertex 9.33826 -9.48629 1
    endloop
  endfacet
  facet normal 0 0 1
    outer loop
      vertex 8 -3.95 1
      vertex 9.17557 -0.381967 1
      vertex 9.08928 -0.322659 1
    endloop
  endfacet
  facet normal 0 0 1
    outer loop
      vertex 9.33826 -9.48629 1
      vertex 8 -6.05 1
      vertex 9.25864 -9.55429 1
    endloop
  endfacet
  facet normal 0 0 1
    outer loop
      vertex 8 -3.95 1
      vertex 9.08928 -0.322659 1
      vertex 9 -0.26795 1
    endloop
  endfacet
  facet normal 0 0 1
    outer loop
      vertex 9.25864 -9.55429 1
      vertex 8 -6.05 1
      vertex 9.17557 -9.61803 1
    endloop
  endfacet
  facet normal 0 0 1
    outer loop
      vertex 8 -3.95 1
      vertex 9 -0.26795 1
      vertex 8.90798 -0.217987 1
    endloop
  endfacet
  facet normal 0 0 1
    outer loop
      vertex 9.17557 -9.61803 1
      vertex 8 -6.05 1
      vertex 9.08928 -9.67734 1
    endloop
  endfacet
  facet normal 0 0 1
    outer loop
      vertex 8 -3.95 1
      vertex 8.90798 -0.217987 1
      vertex 8.81347 -0.17291 1
    endloop
  endfacet
  facet normal 0 0 1
    outer loop
      vertex 9.08928 -9.67734 1
      vertex 8 -6.05 1
      vertex 9 -9.73205 1
    endloop
  endfacet
  facet normal 0 0 1
    outer loop
      vertex 8 -3.95 1
      vertex 8.81347 -0.17291 1
      vertex 8.71674 -0.132839 1
    endloop
  endfacet
  facet normal 0 0 1
    outer loop
      vertex 9 -9.73205 1
      vertex 8 -6.05 1
      vertex 8.90798 -9.78201 1
    endloop
  endfacet
  facet normal 0 0 1
    outer loop
      vertex 8 -3.95 1
      vertex 8.71674 -0.132839 1
      vertex 8.61803 -0.097887 1
    endloop
  endfacet
  facet normal 0 0 1
    outer loop
      vertex 8.90798 -9.78201 1
      vertex 8 -6.05 1
      vertex 8.81347 -9.82709 1
    endloop
  endfacet
  facet normal 0 0 1
    outer loop
      vertex 8 -3.95 1
      vertex 8.61803 -0.097887 1
      vertex 8.51764 -0.0681486 1
    endloop
  endfacet
  facet normal 0 0 1
    outer loop
      vertex 8.81347 -9.82709 1
      vertex 8 -6.05 1
      vertex 8.71674 -9.86716 1
    endloop
  endfacet
  facet normal 0 0 1
    outer loop
      vertex 8 -3.95 1
      vertex 8.51764 -0.0681486 1
      vertex 8.41582 -0.043705 1
    endloop
  endfacet
  facet normal 0 0 1
    outer loop
      vertex 8.71674 -9.86716 1
      vertex 8 -6.05 1
      vertex 8.61803 -9.90211 1
    endloop
  endfacet
  facet normal 0 0 1
    outer loop
      vertex 8 -3.95 1
      vertex 8.41582 -0.043705 1
      vertex 8.31287 -0.0246239 1
    endloop
  endfacet
  facet normal 0 0 1
    outer loop
      vertex 8.61803 -9.90211 1
      vertex 8 -6.05 1
      vertex 8.51764 -9.93185 1
    endloop
  endfacet
  facet normal 0 0 1
    outer loop
      vertex 8 -3.95 1
      vertex 8.31287 -0.0246239 1
      vertex 8.20906 -0.0109568 1
    endloop
  endfacet
  facet normal 0 0 1
    outer loop
      vertex 8.51764 -9.93185 1
      vertex 8 -6.05 1
      vertex 8.41582 -9.9563 1
    endloop
  endfacet
  facet normal 0 0 1
    outer loop
      vertex 8 -3.95 1
      vertex 8.20906 -0.0109568 1
      vertex 8.10467 -0.00274181 1
    endloop
  endfacet
  facet normal 0 0 1
    outer loop
      vertex 8.41582 -9.9563 1
      vertex 8 -6.05 1
      vertex 8.31287 -9.97538 1
    endloop
  endfacet
  facet normal 0 0 1
    outer loop
      vertex 8 -3.95 1
      vertex 8.10467 -0.00274181 1
      vertex 8 0 1
    endloop
  endfacet
  facet normal 0 0 1
    outer loop
      vertex 8.31287 -9.97538 1
      vertex 8 -6.05 1
      vertex 8.20906 -9.98904 1
    endloop
  endfacet
  facet normal 0 0 1
    outer loop
      vertex 8.20906 -9.98904 1
      vertex 8 -6.05 1
      vertex 8.10467 -9.99726 1
    endloop
  endfacet
  facet normal 0 0 1
    outer loop
      vertex 8 -6.05 1
      vertex 8 -10 1
      vertex 8.10467 -9.99726 1
    endloop
  endfacet
  facet normal -0 0 1
    outer loop
      vertex 2 -6.05 1
      vertex 8 -10 1
      vertex 8 -6.05 1
    endloop
  endfacet
  facet normal 0 0 1
    outer loop
      vertex 8 -10 1
      vertex 2 -6.05 1
      vertex 2 -10 1
    endloop
  endfacet
  facet normal -0.47716 0.878816 0
    outer loop
      vertex 1.09202 -0.217987 0
      vertex 1 -0.26795 1
      vertex 1.09202 -0.217987 1
    endloop
  endfacet
  facet normal -0.47716 0.878816 0
    outer loop
      vertex 1 -0.26795 1
      vertex 1.09202 -0.217987 0
      vertex 1 -0.26795 0
    endloop
  endfacet
  facet normal -0.233492 -0.972359 0
    outer loop
      vertex 1.48236 -9.93185 0
      vertex 1.58418 -9.9563 1
      vertex 1.48236 -9.93185 1
    endloop
  endfacet
  facet normal -0.233492 -0.972359 -0
    outer loop
      vertex 1.58418 -9.9563 1
      vertex 1.48236 -9.93185 0
      vertex 1.58418 -9.9563 0
    endloop
  endfacet
  facet normal 0.130462 -0.991453 0
    outer loop
      vertex 8.20906 -9.98904 0
      vertex 8.31287 -9.97538 1
      vertex 8.20906 -9.98904 1
    endloop
  endfacet
  facet normal 0.130462 -0.991453 0
    outer loop
      vertex 8.31287 -9.97538 1
      vertex 8.20906 -9.98904 0
      vertex 8.31287 -9.97538 0
    endloop
  endfacet
  facet normal 0.382709 -0.923869 0
    outer loop
      vertex 8.71674 -9.86716 0
      vertex 8.81347 -9.82709 1
      vertex 8.71674 -9.86716 1
    endloop
  endfacet
  facet normal 0.382709 -0.923869 0
    outer loop
      vertex 8.81347 -9.82709 1
      vertex 8.71674 -9.86716 0
      vertex 8.81347 -9.82709 0
    endloop
  endfacet
  facet normal 0.958812 -0.284043 0
    outer loop
      vertex 9.90211 -8.61803 1
      vertex 9.93185 -8.51764 0
      vertex 9.93185 -8.51764 1
    endloop
  endfacet
  facet normal 0.958812 -0.284043 0
    outer loop
      vertex 9.93185 -8.51764 0
      vertex 9.90211 -8.61803 1
      vertex 9.90211 -8.61803 0
    endloop
  endfacet
  facet normal -0.958816 0.284029 0
    outer loop
      vertex 0.0681477 -1.48236 0
      vertex 0.0978861 -1.38197 1
      vertex 0.0978861 -1.38197 0
    endloop
  endfacet
  facet normal -0.958816 0.284029 0
    outer loop
      vertex 0.0978861 -1.38197 1
      vertex 0.0681477 -1.48236 0
      vertex 0.0681477 -1.48236 1
    endloop
  endfacet
  facet normal 0.923869 -0.382709 0
    outer loop
      vertex 9.82709 -8.81347 1
      vertex 9.86716 -8.71674 0
      vertex 9.86716 -8.71674 1
    endloop
  endfacet
  facet normal 0.923869 -0.382709 0
    outer loop
      vertex 9.86716 -8.71674 0
      vertex 9.82709 -8.81347 1
      vertex 9.82709 -8.81347 0
    endloop
  endfacet
  facet normal 0 -1 0
    outer loop
      vertex 2 -10 0
      vertex 8 -10 1
      vertex 2 -10 1
    endloop
  endfacet
  facet normal 0 -1 -0
    outer loop
      vertex 8 -10 1
      vertex 2 -10 0
      vertex 8 -10 0
    endloop
  endfacet
  facet normal 0 0 -1
    outer loop
      vertex 8 -10 0
      vertex 10 -8 0
      vertex 9.99726 -8.10467 0
    endloop
  endfacet
  facet normal -0 0 -1
    outer loop
      vertex 10 -8 0
      vertex 8 -10 0
      vertex 10 -2 0
    endloop
  endfacet
  facet normal 0 0 -1
    outer loop
      vertex 8 -10 0
      vertex 9.99726 -8.10467 0
      vertex 9.98904 -8.20906 0
    endloop
  endfacet
  facet normal 0 0 -1
    outer loop
      vertex 8 0 0
      vertex 10 -2 0
      vertex 8 -10 0
    endloop
  endfacet
  facet normal 0 0 -1
    outer loop
      vertex 8 -10 0
      vertex 9.98904 -8.20906 0
      vertex 9.97538 -8.31287 0
    endloop
  endfacet
  facet normal 0 0 -1
    outer loop
      vertex 10 -2 0
      vertex 8 0 0
      vertex 9.99726 -1.89533 0
    endloop
  endfacet
  facet normal 0 0 -1
    outer loop
      vertex 8 -10 0
      vertex 9.97538 -8.31287 0
      vertex 9.9563 -8.41582 0
    endloop
  endfacet
  facet normal 0 0 -1
    outer loop
      vertex 9.99726 -1.89533 0
      vertex 8 0 0
      vertex 9.98904 -1.79094 0
    endloop
  endfacet
  facet normal 0 0 -1
    outer loop
      vertex 8 -10 0
      vertex 9.9563 -8.41582 0
      vertex 9.93185 -8.51764 0
    endloop
  endfacet
  facet normal 0 0 -1
    outer loop
      vertex 9.98904 -1.79094 0
      vertex 8 0 0
      vertex 9.97538 -1.68713 0
    endloop
  endfacet
  facet normal 0 0 -1
    outer loop
      vertex 8 -10 0
      vertex 9.93185 -8.51764 0
      vertex 9.90211 -8.61803 0
    endloop
  endfacet
  facet normal 0 0 -1
    outer loop
      vertex 9.97538 -1.68713 0
      vertex 8 0 0
      vertex 9.9563 -1.58418 0
    endloop
  endfacet
  facet normal 0 0 -1
    outer loop
      vertex 8 -10 0
      vertex 9.90211 -8.61803 0
      vertex 9.86716 -8.71674 0
    endloop
  endfacet
  facet normal 0 0 -1
    outer loop
      vertex 9.9563 -1.58418 0
      vertex 8 0 0
      vertex 9.93185 -1.48236 0
    endloop
  endfacet
  facet normal 0 0 -1
    outer loop
      vertex 8 -10 0
      vertex 9.86716 -8.71674 0
      vertex 9.82709 -8.81347 0
    endloop
  endfacet
  facet normal 0 0 -1
    outer loop
      vertex 9.93185 -1.48236 0
      vertex 8 0 0
      vertex 9.90211 -1.38197 0
    endloop
  endfacet
  facet normal 0 0 -1
    outer loop
      vertex 8 -10 0
      vertex 9.82709 -8.81347 0
      vertex 9.78201 -8.90798 0
    endloop
  endfacet
  facet normal 0 0 -1
    outer loop
      vertex 9.90211 -1.38197 0
      vertex 8 0 0
      vertex 9.86716 -1.28326 0
    endloop
  endfacet
  facet normal 0 0 -1
    outer loop
      vertex 8 -10 0
      vertex 9.78201 -8.90798 0
      vertex 9.73205 -9 0
    endloop
  endfacet
  facet normal 0 0 -1
    outer loop
      vertex 9.86716 -1.28326 0
      vertex 8 0 0
      vertex 9.82709 -1.18653 0
    endloop
  endfacet
  facet normal 0 0 -1
    outer loop
      vertex 8 -10 0
      vertex 9.73205 -9 0
      vertex 9.67734 -9.08928 0
    endloop
  endfacet
  facet normal 0 0 -1
    outer loop
      vertex 9.82709 -1.18653 0
      vertex 8 0 0
      vertex 9.78201 -1.09202 0
    endloop
  endfacet
  facet normal 0 0 -1
    outer loop
      vertex 8 -10 0
      vertex 9.67734 -9.08928 0
      vertex 9.61803 -9.17557 0
    endloop
  endfacet
  facet normal 0 0 -1
    outer loop
      vertex 9.78201 -1.09202 0
      vertex 8 0 0
      vertex 9.73205 -1 0
    endloop
  endfacet
  facet normal 0 0 -1
    outer loop
      vertex 8 -10 0
      vertex 9.61803 -9.17557 0
      vertex 9.55429 -9.25864 0
    endloop
  endfacet
  facet normal 0 0 -1
    outer loop
      vertex 9.73205 -1 0
      vertex 8 0 0
      vertex 9.67734 -0.910723 0
    endloop
  endfacet
  facet normal 0 0 -1
    outer loop
      vertex 8 -10 0
      vertex 9.55429 -9.25864 0
      vertex 9.48629 -9.33826 0
    endloop
  endfacet
  facet normal 0 0 -1
    outer loop
      vertex 9.67734 -0.910723 0
      vertex 8 0 0
      vertex 9.61803 -0.82443 0
    endloop
  endfacet
  facet normal 0 0 -1
    outer loop
      vertex 8 -10 0
      vertex 9.48629 -9.33826 0
      vertex 9.41421 -9.41421 0
    endloop
  endfacet
  facet normal 0 0 -1
    outer loop
      vertex 9.61803 -0.82443 0
      vertex 8 0 0
      vertex 9.55429 -0.74136 0
    endloop
  endfacet
  facet normal 0 0 -1
    outer loop
      vertex 8 -10 0
      vertex 9.41421 -9.41421 0
      vertex 9.33826 -9.48629 0
    endloop
  endfacet
  facet normal 0 0 -1
    outer loop
      vertex 9.55429 -0.74136 0
      vertex 8 0 0
      vertex 9.48629 -0.661739 0
    endloop
  endfacet
  facet normal 0 0 -1
    outer loop
      vertex 8 -10 0
      vertex 9.33826 -9.48629 0
      vertex 9.25864 -9.55429 0
    endloop
  endfacet
  facet normal 0 0 -1
    outer loop
      vertex 9.48629 -0.661739 0
      vertex 8 0 0
      vertex 9.41421 -0.585787 0
    endloop
  endfacet
  facet normal 0 0 -1
    outer loop
      vertex 8 -10 0
      vertex 9.25864 -9.55429 0
      vertex 9.17557 -9.61803 0
    endloop
  endfacet
  facet normal 0 0 -1
    outer loop
      vertex 9.41421 -0.585787 0
      vertex 8 0 0
      vertex 9.33826 -0.513711 0
    endloop
  endfacet
  facet normal 0 0 -1
    outer loop
      vertex 8 -10 0
      vertex 9.17557 -9.61803 0
      vertex 9.08928 -9.67734 0
    endloop
  endfacet
  facet normal 0 0 -1
    outer loop
      vertex 9.33826 -0.513711 0
      vertex 8 0 0
      vertex 9.25864 -0.445708 0
    endloop
  endfacet
  facet normal 0 0 -1
    outer loop
      vertex 8 -10 0
      vertex 9.08928 -9.67734 0
      vertex 9 -9.73205 0
    endloop
  endfacet
  facet normal 0 0 -1
    outer loop
      vertex 9.25864 -0.445708 0
      vertex 8 0 0
      vertex 9.17557 -0.381967 0
    endloop
  endfacet
  facet normal 0 0 -1
    outer loop
      vertex 8 -10 0
      vertex 9 -9.73205 0
      vertex 8.90798 -9.78201 0
    endloop
  endfacet
  facet normal 0 0 -1
    outer loop
      vertex 9.17557 -0.381967 0
      vertex 8 0 0
      vertex 9.08928 -0.322659 0
    endloop
  endfacet
  facet normal 0 0 -1
    outer loop
      vertex 8 -10 0
      vertex 8.90798 -9.78201 0
      vertex 8.81347 -9.82709 0
    endloop
  endfacet
  facet normal 0 0 -1
    outer loop
      vertex 9.08928 -0.322659 0
      vertex 8 0 0
      vertex 9 -0.26795 0
    endloop
  endfacet
  facet normal 0 0 -1
    outer loop
      vertex 8 -10 0
      vertex 8.81347 -9.82709 0
      vertex 8.71674 -9.86716 0
    endloop
  endfacet
  facet normal 0 0 -1
    outer loop
      vertex 9 -0.26795 0
      vertex 8 0 0
      vertex 8.90798 -0.217987 0
    endloop
  endfacet
  facet normal 0 0 -1
    outer loop
      vertex 8 -10 0
      vertex 8.71674 -9.86716 0
      vertex 8.61803 -9.90211 0
    endloop
  endfacet
  facet normal 0 0 -1
    outer loop
      vertex 8.90798 -0.217987 0
      vertex 8 0 0
      vertex 8.81347 -0.17291 0
    endloop
  endfacet
  facet normal 0 0 -1
    outer loop
      vertex 8 -10 0
      vertex 8.61803 -9.90211 0
      vertex 8.51764 -9.93185 0
    endloop
  endfacet
  facet normal 0 0 -1
    outer loop
      vertex 8.81347 -0.17291 0
      vertex 8 0 0
      vertex 8.71674 -0.132839 0
    endloop
  endfacet
  facet normal 0 0 -1
    outer loop
      vertex 8 -10 0
      vertex 8.51764 -9.93185 0
      vertex 8.41582 -9.9563 0
    endloop
  endfacet
  facet normal 0 0 -1
    outer loop
      vertex 8.71674 -0.132839 0
      vertex 8 0 0
      vertex 8.61803 -0.097887 0
    endloop
  endfacet
  facet normal 0 0 -1
    outer loop
      vertex 8 -10 0
      vertex 8.41582 -9.9563 0
      vertex 8.31287 -9.97538 0
    endloop
  endfacet
  facet normal 0 0 -1
    outer loop
      vertex 8.61803 -0.097887 0
      vertex 8 0 0
      vertex 8.51764 -0.0681486 0
    endloop
  endfacet
  facet normal 0 0 -1
    outer loop
      vertex 8 -10 0
      vertex 8.31287 -9.97538 0
      vertex 8.20906 -9.98904 0
    endloop
  endfacet
  facet normal 0 0 -1
    outer loop
      vertex 8.51764 -0.0681486 0
      vertex 8 0 0
      vertex 8.41582 -0.043705 0
    endloop
  endfacet
  facet normal 0 0 -1
    outer loop
      vertex 8 -10 0
      vertex 8.20906 -9.98904 0
      vertex 8.10467 -9.99726 0
    endloop
  endfacet
  facet normal 0 0 -1
    outer loop
      vertex 8.41582 -0.043705 0
      vertex 8 0 0
      vertex 8.31287 -0.0246239 0
    endloop
  endfacet
  facet normal 0 0 -1
    outer loop
      vertex 8.31287 -0.0246239 0
      vertex 8 0 0
      vertex 8.20906 -0.0109568 0
    endloop
  endfacet
  facet normal 0 0 -1
    outer loop
      vertex 8.20906 -0.0109568 0
      vertex 8 0 0
      vertex 8.10467 -0.00274181 0
    endloop
  endfacet
  facet normal 0 0 -1
    outer loop
      vertex 2 -10 0
      vertex 8 0 0
      vertex 8 -10 0
    endloop
  endfacet
  facet normal 0 0 -1
    outer loop
      vertex 2 -10 0
      vertex 2 0 0
      vertex 8 0 0
    endloop
  endfacet
  facet normal 0 0 -1
    outer loop
      vertex 0 -8 0
      vertex 2 -10 0
      vertex 1.89533 -9.99726 0
    endloop
  endfacet
  facet normal 0 0 -1
    outer loop
      vertex 2 -10 0
      vertex 0 -8 0
      vertex 2 0 0
    endloop
  endfacet
  facet normal 0 0 -1
    outer loop
      vertex 0 -8 0
      vertex 1.89533 -9.99726 0
      vertex 1.79094 -9.98904 0
    endloop
  endfacet
  facet normal 0 0 -1
    outer loop
      vertex 0 -2 0
      vertex 2 0 0
      vertex 0 -8 0
    endloop
  endfacet
  facet normal 0 0 -1
    outer loop
      vertex 0 -8 0
      vertex 1.79094 -9.98904 0
      vertex 1.68713 -9.97538 0
    endloop
  endfacet
  facet normal 0 0 -1
    outer loop
      vertex 2 0 0
      vertex 0 -2 0
      vertex 1.89533 -0.00274181 0
    endloop
  endfacet
  facet normal 0 0 -1
    outer loop
      vertex 0 -8 0
      vertex 1.68713 -9.97538 0
      vertex 1.58418 -9.9563 0
    endloop
  endfacet
  facet normal 0 0 -1
    outer loop
      vertex 1.89533 -0.00274181 0
      vertex 0 -2 0
      vertex 1.79094 -0.0109568 0
    endloop
  endfacet
  facet normal 0 0 -1
    outer loop
      vertex 0 -8 0
      vertex 1.58418 -9.9563 0
      vertex 1.48236 -9.93185 0
    endloop
  endfacet
  facet normal 0 0 -1
    outer loop
      vertex 1.79094 -0.0109568 0
      vertex 0 -2 0
      vertex 1.68713 -0.0246239 0
    endloop
  endfacet
  facet normal 0 0 -1
    outer loop
      vertex 0 -8 0
      vertex 1.48236 -9.93185 0
      vertex 1.38197 -9.90211 0
    endloop
  endfacet
  facet normal 0 0 -1
    outer loop
      vertex 1.68713 -0.0246239 0
      vertex 0 -2 0
      vertex 1.58418 -0.043705 0
    endloop
  endfacet
  facet normal 0 0 -1
    outer loop
      vertex 0 -8 0
      vertex 1.38197 -9.90211 0
      vertex 1.28326 -9.86716 0
    endloop
  endfacet
  facet normal 0 0 -1
    outer loop
      vertex 1.58418 -0.043705 0
      vertex 0 -2 0
      vertex 1.48236 -0.0681486 0
    endloop
  endfacet
  facet normal 0 0 -1
    outer loop
      vertex 0 -8 0
      vertex 1.28326 -9.86716 0
      vertex 1.18653 -9.82709 0
    endloop
  endfacet
  facet normal 0 0 -1
    outer loop
      vertex 1.48236 -0.0681486 0
      vertex 0 -2 0
      vertex 1.38197 -0.097887 0
    endloop
  endfacet
  facet normal 0 0 -1
    outer loop
      vertex 0 -8 0
      vertex 1.18653 -9.82709 0
      vertex 1.09202 -9.78201 0
    endloop
  endfacet
  facet normal 0 0 -1
    outer loop
      vertex 1.38197 -0.097887 0
      vertex 0 -2 0
      vertex 1.28326 -0.132839 0
    endloop
  endfacet
  facet normal 0 0 -1
    outer loop
      vertex 0 -8 0
      vertex 1.09202 -9.78201 0
      vertex 1 -9.73205 0
    endloop
  endfacet
  facet normal 0 0 -1
    outer loop
      vertex 1.28326 -0.132839 0
      vertex 0 -2 0
      vertex 1.18653 -0.17291 0
    endloop
  endfacet
  facet normal 0 0 -1
    outer loop
      vertex 0 -8 0
      vertex 1 -9.73205 0
      vertex 0.910722 -9.67734 0
    endloop
  endfacet
  facet normal 0 0 -1
    outer loop
      vertex 1.18653 -0.17291 0
      vertex 0 -2 0
      vertex 1.09202 -0.217987 0
    endloop
  endfacet
  facet normal 0 0 -1
    outer loop
      vertex 0 -8 0
      vertex 0.910722 -9.67734 0
      vertex 0.824429 -9.61803 0
    endloop
  endfacet
  facet normal 0 0 -1
    outer loop
      vertex 1.09202 -0.217987 0
      vertex 0 -2 0
      vertex 1 -0.26795 0
    endloop
  endfacet
  facet normal 0 0 -1
    outer loop
      vertex 0 -8 0
      vertex 0.824429 -9.61803 0
      vertex 0.741359 -9.55429 0
    endloop
  endfacet
  facet normal 0 0 -1
    outer loop
      vertex 1 -0.26795 0
      vertex 0 -2 0
      vertex 0.910722 -0.322659 0
    endloop
  endfacet
  facet normal 0 0 -1
    outer loop
      vertex 0 -8 0
      vertex 0.741359 -9.55429 0
      vertex 0.661738 -9.48629 0
    endloop
  endfacet
  facet normal 0 0 -1
    outer loop
      vertex 0.910722 -0.322659 0
      vertex 0 -2 0
      vertex 0.824429 -0.381967 0
    endloop
  endfacet
  facet normal 0 0 -1
    outer loop
      vertex 0 -8 0
      vertex 0.661738 -9.48629 0
      vertex 0.585786 -9.41421 0
    endloop
  endfacet
  facet normal 0 0 -1
    outer loop
      vertex 0.824429 -0.381967 0
      vertex 0 -2 0
      vertex 0.741359 -0.445708 0
    endloop
  endfacet
  facet normal 0 0 -1
    outer loop
      vertex 0 -8 0
      vertex 0.585786 -9.41421 0
      vertex 0.51371 -9.33826 0
    endloop
  endfacet
  facet normal 0 0 -1
    outer loop
      vertex 0.741359 -0.445708 0
      vertex 0 -2 0
      vertex 0.661738 -0.513711 0
    endloop
  endfacet
  facet normal 0 0 -1
    outer loop
      vertex 0 -8 0
      vertex 0.51371 -9.33826 0
      vertex 0.445707 -9.25864 0
    endloop
  endfacet
  facet normal 0 0 -1
    outer loop
      vertex 0.661738 -0.513711 0
      vertex 0 -2 0
      vertex 0.585786 -0.585787 0
    endloop
  endfacet
  facet normal 0 0 -1
    outer loop
      vertex 0 -8 0
      vertex 0.445707 -9.25864 0
      vertex 0.381966 -9.17557 0
    endloop
  endfacet
  facet normal 0 0 -1
    outer loop
      vertex 0.585786 -0.585787 0
      vertex 0 -2 0
      vertex 0.51371 -0.661739 0
    endloop
  endfacet
  facet normal 0 0 -1
    outer loop
      vertex 0 -8 0
      vertex 0.381966 -9.17557 0
      vertex 0.322659 -9.08928 0
    endloop
  endfacet
  facet normal 0 0 -1
    outer loop
      vertex 0.51371 -0.661739 0
      vertex 0 -2 0
      vertex 0.445707 -0.74136 0
    endloop
  endfacet
  facet normal 0 0 -1
    outer loop
      vertex 0 -8 0
      vertex 0.322659 -9.08928 0
      vertex 0.267949 -9 0
    endloop
  endfacet
  facet normal 0 0 -1
    outer loop
      vertex 0.445707 -0.74136 0
      vertex 0 -2 0
      vertex 0.381966 -0.82443 0
    endloop
  endfacet
  facet normal 0 0 -1
    outer loop
      vertex 0 -8 0
      vertex 0.267949 -9 0
      vertex 0.217986 -8.90798 0
    endloop
  endfacet
  facet normal 0 0 -1
    outer loop
      vertex 0.381966 -0.82443 0
      vertex 0 -2 0
      vertex 0.322659 -0.910723 0
    endloop
  endfacet
  facet normal 0 0 -1
    outer loop
      vertex 0 -8 0
      vertex 0.217986 -8.90798 0
      vertex 0.172909 -8.81347 0
    endloop
  endfacet
  facet normal 0 0 -1
    outer loop
      vertex 0.322659 -0.910723 0
      vertex 0 -2 0
      vertex 0.267949 -1 0
    endloop
  endfacet
  facet normal 0 0 -1
    outer loop
      vertex 0 -8 0
      vertex 0.172909 -8.81347 0
      vertex 0.132838 -8.71674 0
    endloop
  endfacet
  facet normal 0 0 -1
    outer loop
      vertex 0.267949 -1 0
      vertex 0 -2 0
      vertex 0.217986 -1.09202 0
    endloop
  endfacet
  facet normal 0 0 -1
    outer loop
      vertex 0 -8 0
      vertex 0.132838 -8.71674 0
      vertex 0.0978861 -8.61803 0
    endloop
  endfacet
  facet normal 0 0 -1
    outer loop
      vertex 0.217986 -1.09202 0
      vertex 0 -2 0
      vertex 0.172909 -1.18653 0
    endloop
  endfacet
  facet normal 0 0 -1
    outer loop
      vertex 0 -8 0
      vertex 0.0978861 -8.61803 0
      vertex 0.0681477 -8.51764 0
    endloop
  endfacet
  facet normal 0 0 -1
    outer loop
      vertex 0.172909 -1.18653 0
      vertex 0 -2 0
      vertex 0.132838 -1.28326 0
    endloop
  endfacet
  facet normal 0 0 -1
    outer loop
      vertex 0 -8 0
      vertex 0.0681477 -8.51764 0
      vertex 0.043704 -8.41582 0
    endloop
  endfacet
  facet normal 0 0 -1
    outer loop
      vertex 0.132838 -1.28326 0
      vertex 0 -2 0
      vertex 0.0978861 -1.38197 0
    endloop
  endfacet
  facet normal 0 0 -1
    outer loop
      vertex 0 -8 0
      vertex 0.043704 -8.41582 0
      vertex 0.0246229 -8.31287 0
    endloop
  endfacet
  facet normal 0 0 -1
    outer loop
      vertex 0.0978861 -1.38197 0
      vertex 0 -2 0
      vertex 0.0681477 -1.48236 0
    endloop
  endfacet
  facet normal 0 0 -1
    outer loop
      vertex 0 -8 0
      vertex 0.0246229 -8.31287 0
      vertex 0.0109558 -8.20906 0
    endloop
  endfacet
  facet normal 0 0 -1
    outer loop
      vertex 0.0681477 -1.48236 0
      vertex 0 -2 0
      vertex 0.043704 -1.58418 0
    endloop
  endfacet
  facet normal 0 0 -1
    outer loop
      vertex 0 -8 0
      vertex 0.0109558 -8.20906 0
      vertex 0.00274086 -8.10467 0
    endloop
  endfacet
  facet normal 0 0 -1
    outer loop
      vertex 0.043704 -1.58418 0
      vertex 0 -2 0
      vertex 0.0246229 -1.68713 0
    endloop
  endfacet
  facet normal 0 0 -1
    outer loop
      vertex 0.0246229 -1.68713 0
      vertex 0 -2 0
      vertex 0.0109558 -1.79094 0
    endloop
  endfacet
  facet normal 0 0 -1
    outer loop
      vertex 0.0109558 -1.79094 0
      vertex 0 -2 0
      vertex 0.00274086 -1.89533 0
    endloop
  endfacet
  facet normal 0.333764 -0.942657 0
    outer loop
      vertex 8.61803 -9.90211 0
      vertex 8.71674 -9.86716 1
      vertex 8.61803 -9.90211 1
    endloop
  endfacet
  facet normal 0.333764 -0.942657 0
    outer loop
      vertex 8.71674 -9.86716 1
      vertex 8.61803 -9.90211 0
      vertex 8.71674 -9.86716 0
    endloop
  endfacet
  facet normal 0.852636 0.522505 0
    outer loop
      vertex 9.73205 -1 1
      vertex 9.67734 -0.910723 0
      vertex 9.67734 -0.910723 1
    endloop
  endfacet
  facet normal 0.852636 0.522505 0
    outer loop
      vertex 9.67734 -0.910723 0
      vertex 9.73205 -1 1
      vertex 9.73205 -1 0
    endloop
  endfacet
  facet normal -0.923866 -0.382717 0
    outer loop
      vertex 0.172909 -8.81347 0
      vertex 0.132838 -8.71674 1
      vertex 0.132838 -8.71674 0
    endloop
  endfacet
  facet normal -0.923866 -0.382717 0
    outer loop
      vertex 0.132838 -8.71674 1
      vertex 0.172909 -8.81347 0
      vertex 0.172909 -8.81347 1
    endloop
  endfacet
  facet normal 0.0261685 -0.999658 0
    outer loop
      vertex 8 -10 0
      vertex 8.10467 -9.99726 1
      vertex 8 -10 1
    endloop
  endfacet
  facet normal 0.0261685 -0.999658 0
    outer loop
      vertex 8.10467 -9.99726 1
      vertex 8 -10 0
      vertex 8.10467 -9.99726 0
    endloop
  endfacet
  facet normal 0.942657 -0.333764 0
    outer loop
      vertex 9.86716 -8.71674 1
      vertex 9.90211 -8.61803 0
      vertex 9.90211 -8.61803 1
    endloop
  endfacet
  facet normal 0.942657 -0.333764 0
    outer loop
      vertex 9.90211 -8.61803 0
      vertex 9.86716 -8.71674 1
      vertex 9.86716 -8.71674 0
    endloop
  endfacet
  facet normal -0.902593 -0.430496 0
    outer loop
      vertex 0.217986 -8.90798 0
      vertex 0.172909 -8.81347 1
      vertex 0.172909 -8.81347 0
    endloop
  endfacet
  facet normal -0.902593 -0.430496 0
    outer loop
      vertex 0.172909 -8.81347 1
      vertex 0.217986 -8.90798 0
      vertex 0.217986 -8.90798 1
    endloop
  endfacet
  facet normal -0.824129 0.566403 0
    outer loop
      vertex 0.322659 -0.910723 0
      vertex 0.381966 -0.82443 1
      vertex 0.381966 -0.82443 0
    endloop
  endfacet
  facet normal -0.824129 0.566403 0
    outer loop
      vertex 0.381966 -0.82443 1
      vertex 0.322659 -0.910723 0
      vertex 0.322659 -0.910723 1
    endloop
  endfacet
  facet normal -0.18224 0.983254 0
    outer loop
      vertex 1.68713 -0.0246239 0
      vertex 1.58418 -0.043705 1
      vertex 1.68713 -0.0246239 1
    endloop
  endfacet
  facet normal -0.18224 0.983254 0
    outer loop
      vertex 1.58418 -0.043705 1
      vertex 1.68713 -0.0246239 0
      vertex 1.58418 -0.043705 0
    endloop
  endfacet
  facet normal -0.284043 -0.958812 0
    outer loop
      vertex 1.38197 -9.90211 0
      vertex 1.48236 -9.93185 1
      vertex 1.38197 -9.90211 1
    endloop
  endfacet
  facet normal -0.284043 -0.958812 -0
    outer loop
      vertex 1.48236 -9.93185 1
      vertex 1.38197 -9.90211 0
      vertex 1.48236 -9.93185 0
    endloop
  endfacet
  facet normal 0.878828 -0.477138 0
    outer loop
      vertex 9.73205 -9 1
      vertex 9.78201 -8.90798 0
      vertex 9.78201 -8.90798 1
    endloop
  endfacet
  facet normal 0.878828 -0.477138 0
    outer loop
      vertex 9.78201 -8.90798 0
      vertex 9.73205 -9 1
      vertex 9.73205 -9 0
    endloop
  endfacet
  facet normal -0.878816 -0.47716 0
    outer loop
      vertex 0.267949 -9 0
      vertex 0.217986 -8.90798 1
      vertex 0.217986 -8.90798 0
    endloop
  endfacet
  facet normal -0.878816 -0.47716 0
    outer loop
      vertex 0.217986 -8.90798 1
      vertex 0.267949 -9 0
      vertex 0.267949 -9 1
    endloop
  endfacet
  facet normal -0.430519 -0.902581 0
    outer loop
      vertex 1.09202 -9.78201 0
      vertex 1.18653 -9.82709 1
      vertex 1.09202 -9.78201 1
    endloop
  endfacet
  facet normal -0.430519 -0.902581 -0
    outer loop
      vertex 1.18653 -9.82709 1
      vertex 1.09202 -9.78201 0
      vertex 1.18653 -9.82709 0
    endloop
  endfacet
  facet normal 0.991453 -0.130462 0
    outer loop
      vertex 9.97538 -8.31287 1
      vertex 9.98904 -8.20906 0
      vertex 9.98904 -8.20906 1
    endloop
  endfacet
  facet normal 0.991453 -0.130462 0
    outer loop
      vertex 9.98904 -8.20906 0
      vertex 9.97538 -8.31287 1
      vertex 9.97538 -8.31287 0
    endloop
  endfacet
  facet normal -0.333781 0.942651 0
    outer loop
      vertex 1.38197 -0.097887 0
      vertex 1.28326 -0.132839 1
      vertex 1.38197 -0.097887 1
    endloop
  endfacet
  facet normal -0.333781 0.942651 0
    outer loop
      vertex 1.28326 -0.132839 1
      vertex 1.38197 -0.097887 0
      vertex 1.28326 -0.132839 0
    endloop
  endfacet
  facet normal -0.793357 -0.608756 0
    outer loop
      vertex 0.445707 -9.25864 0
      vertex 0.381966 -9.17557 1
      vertex 0.381966 -9.17557 0
    endloop
  endfacet
  facet normal -0.793357 -0.608756 0
    outer loop
      vertex 0.381966 -9.17557 1
      vertex 0.445707 -9.25864 0
      vertex 0.445707 -9.25864 1
    endloop
  endfacet
  facet normal 0.60875 -0.793362 0
    outer loop
      vertex 9.17557 -9.61803 0
      vertex 9.25864 -9.55429 1
      vertex 9.17557 -9.61803 1
    endloop
  endfacet
  facet normal 0.60875 -0.793362 0
    outer loop
      vertex 9.25864 -9.55429 1
      vertex 9.17557 -9.61803 0
      vertex 9.25864 -9.55429 0
    endloop
  endfacet
  facet normal 0.972359 -0.233492 0
    outer loop
      vertex 9.93185 -8.51764 1
      vertex 9.9563 -8.41582 0
      vertex 9.9563 -8.41582 1
    endloop
  endfacet
  facet normal 0.972359 -0.233492 0
    outer loop
      vertex 9.9563 -8.41582 0
      vertex 9.93185 -8.51764 1
      vertex 9.93185 -8.51764 0
    endloop
  endfacet
  facet normal -0.284029 0.958816 0
    outer loop
      vertex 1.48236 -0.0681486 0
      vertex 1.38197 -0.097887 1
      vertex 1.48236 -0.0681486 1
    endloop
  endfacet
  facet normal -0.284029 0.958816 0
    outer loop
      vertex 1.38197 -0.097887 1
      vertex 1.48236 -0.0681486 0
      vertex 1.38197 -0.097887 0
    endloop
  endfacet
  facet normal -0.522494 0.852643 0
    outer loop
      vertex 1 -0.26795 0
      vertex 0.910722 -0.322659 1
      vertex 1 -0.26795 1
    endloop
  endfacet
  facet normal -0.522494 0.852643 0
    outer loop
      vertex 0.910722 -0.322659 1
      vertex 1 -0.26795 0
      vertex 0.910722 -0.322659 0
    endloop
  endfacet
  facet normal 1 0 0
    outer loop
      vertex 8 -3.7 4
      vertex 8 -6.3 4
      vertex 8 -6.05 3
    endloop
  endfacet
  facet normal 1 -0 0
    outer loop
      vertex 8 -6.05 5
      vertex 8 -3.7 4
      vertex 8 -3.95 5
    endloop
  endfacet
  facet normal 1 0 0
    outer loop
      vertex 8 -3.7 4
      vertex 8 -6.05 3
      vertex 8 -3.95 3
    endloop
  endfacet
  facet normal 1 0 0
    outer loop
      vertex 8 -6.3 4
      vertex 8 -3.7 4
      vertex 8 -6.05 5
    endloop
  endfacet
  facet normal 1 0 0
    outer loop
      vertex 8 -3.95 3
      vertex 8 -6.05 3
      vertex 8 -3.95 1
    endloop
  endfacet
  facet normal 1 0 0
    outer loop
      vertex 8 -3.95 1
      vertex 8 -6.05 3
      vertex 8 -6.05 1
    endloop
  endfacet
  facet normal -1 0 0
    outer loop
      vertex 2 -6.05 3
      vertex 2 -3.95 3
      vertex 2 -3.95 1
    endloop
  endfacet
  facet normal -1 0 0
    outer loop
      vertex 2 -6.05 3
      vertex 2 -3.95 1
      vertex 2 -6.05 1
    endloop
  endfacet
  facet normal -1 0 0
    outer loop
      vertex 2 -6.3 4
      vertex 2 -3.95 3
      vertex 2 -6.05 3
    endloop
  endfacet
  facet normal -1 0 0
    outer loop
      vertex 2 -3.95 3
      vertex 2 -6.3 4
      vertex 2 -3.95 5
    endloop
  endfacet
  facet normal -1 -0 0
    outer loop
      vertex 2 -3.95 5
      vertex 2 -6.3 4
      vertex 2 -6.05 5
    endloop
  endfacet
  facet normal -1 -0 0
    outer loop
      vertex 2 -3.7 4
      vertex 2 -3.95 3
      vertex 2 -3.95 5
    endloop
  endfacet
  facet normal 0 1 -0
    outer loop
      vertex 8 -3.95 1
      vertex 2 -3.95 3
      vertex 8 -3.95 3
    endloop
  endfacet
  facet normal 0 1 0
    outer loop
      vertex 2 -3.95 3
      vertex 8 -3.95 1
      vertex 2 -3.95 1
    endloop
  endfacet
  facet normal 0 -1 0
    outer loop
      vertex 2 -6.05 1
      vertex 8 -6.05 3
      vertex 2 -6.05 3
    endloop
  endfacet
  facet normal 0 -1 -0
    outer loop
      vertex 8 -6.05 3
      vertex 2 -6.05 1
      vertex 8 -6.05 1
    endloop
  endfacet
  facet normal 0 -0.970143 0.242536
    outer loop
      vertex 2 -6.3 4
      vertex 8 -6.05 5
      vertex 2 -6.05 5
    endloop
  endfacet
  facet normal 0 -0.970143 0.242536
    outer loop
      vertex 8 -6.05 5
      vertex 2 -6.3 4
      vertex 8 -6.3 4
    endloop
  endfacet
  facet normal 0 -0.970143 -0.242536
    outer loop
      vertex 2 -6.05 3
      vertex 8 -6.3 4
      vertex 2 -6.3 4
    endloop
  endfacet
  facet normal 0 -0.970143 -0.242536
    outer loop
      vertex 8 -6.3 4
      vertex 2 -6.05 3
      vertex 8 -6.05 3
    endloop
  endfacet
  facet normal -0 0 1
    outer loop
      vertex 2 -3.95 5
      vertex 8 -6.05 5
      vertex 8 -3.95 5
    endloop
  endfacet
  facet normal 0 0 1
    outer loop
      vertex 8 -6.05 5
      vertex 2 -3.95 5
      vertex 2 -6.05 5
    endloop
  endfacet
  facet normal 0 0.970143 -0.242536
    outer loop
      vertex 8 -3.95 3
      vertex 2 -3.7 4
      vertex 8 -3.7 4
    endloop
  endfacet
  facet normal 0 0.970143 -0.242536
    outer loop
      vertex 2 -3.7 4
      vertex 8 -3.95 3
      vertex 2 -3.95 3
    endloop
  endfacet
  facet normal 0 0.970143 0.242536
    outer loop
      vertex 8 -3.7 4
      vertex 2 -3.95 5
      vertex 8 -3.95 5
    endloop
  endfacet
  facet normal 0 0.970143 0.242536
    outer loop
      vertex 2 -3.95 5
      vertex 8 -3.7 4
      vertex 2 -3.7 4
    endloop
  endfacet
endsolid OpenSCAD_Model
